name: Modern 24-point H
spacing: proportional
bounding-box: 59 52
ascent: 43
descent: 9
line-height: 58
default-char: missing
converter: monobit v0.33
source-name: FONT.LIB6.bin/HELV24H.F
source-format: [Lisa] NFNT
history: load -format=lisa
shift-up: -9

0x08:
    ..........................
    ..........................
    ..........................
    ..........................
    ..........................
    ..........................
    ..........................
    ..........................
    @@@.......................
    @@@.......................
    @@@.......................
    @@@.......................
    @@@.......................
    @@@.......................
    @@@.......................
    @@@.......................
    @@@.......................
    @@@.......................
    @@@.......................
    @@@.......................
    @@@.....@@................
    @@@....@@@................
    @@@...@@@@................
    @@@..@@@@@................
    @@@.@@@@@@................
    @@.@@@@@@@@@@@@@@@@@@@@@@@
    @@.@@@@@@@@@@@@@@@@@@@@@@@
    @@@.@@@@@@................
    @@@..@@@@@................
    @@@...@@@@................
    @@@....@@@................
    @@@.....@@................
    @@@.......................
    @@@.......................
    @@@.......................
    @@@.......................
    @@@.......................
    @@@.......................
    @@@.......................
    @@@.......................
    @@@.......................
    @@@.......................
    @@@.......................
    ..........................
    ..........................
    ..........................
    ..........................
    ..........................
    ..........................
    ..........................
    ..........................
    ..........................

    left-bearing: 3
    right-bearing: 3


0x09:
    ..........................
    ..........................
    ..........................
    ..........................
    ..........................
    ..........................
    ..........................
    ..........................
    .......................@@@
    .......................@@@
    .......................@@@
    .......................@@@
    .......................@@@
    .......................@@@
    .......................@@@
    .......................@@@
    .......................@@@
    .......................@@@
    .......................@@@
    .......................@@@
    ................@@.....@@@
    ................@@@....@@@
    ................@@@@...@@@
    ................@@@@@..@@@
    ................@@@@@@.@@@
    @@@@@@@@@@@@@@@@@@@@@@@.@@
    @@@@@@@@@@@@@@@@@@@@@@@.@@
    ................@@@@@@.@@@
    ................@@@@@..@@@
    ................@@@@...@@@
    ................@@@....@@@
    ................@@.....@@@
    .......................@@@
    .......................@@@
    .......................@@@
    .......................@@@
    .......................@@@
    .......................@@@
    .......................@@@
    .......................@@@
    .......................@@@
    .......................@@@
    .......................@@@
    ..........................
    ..........................
    ..........................
    ..........................
    ..........................
    ..........................
    ..........................
    ..........................
    ..........................

    left-bearing: 3
    right-bearing: 3


0x0c:
    ....................................
    ....................................
    ....................................
    ....................................
    ....................................
    @@@@@@@@@@@@@@@@@@@@@@@@@@@@@@@@@@@@
    @@@@@@@@@@@@@@@@@@@@@@@@@@@@@@@@@@@@
    @@@@@@@@@@@@@@@@@@@@@@@@@@@@@@@@@@@@
    @@@@............................@@@@
    @@@@............................@@@@
    @@@@............................@@@@
    @@@@............................@@@@
    @@@@............................@@@@
    @@@@............................@@@@
    @@@@............................@@@@
    @@@@............................@@@@
    @@@@............................@@@@
    @@@@............................@@@@
    @@@@............................@@@@
    @@@@............................@@@@
    @@@@............................@@@@
    @@@@............................@@@@
    @@@@............................@@@@
    @@@@............................@@@@
    @@@@............................@@@@
    @@@@............................@@@@
    @@@@............................@@@@
    @@@@............................@@@@
    @@@@............................@@@@
    @@@@............................@@@@
    @@@@............................@@@@
    @@@@............................@@@@
    @@@@............................@@@@
    @@@@............................@@@@
    @@@@.............@@.............@@@@
    @@@@............@@@@............@@@@
    @@@@...........@@@@@@...........@@@@
    @@@@..........@@@@@@@@..........@@@@
    @@@@@@@......@@@@@@@@@@......@@@@@@@
    ............@@@@@@@@@@@@............
    ...........@@@@@@@@@@@@@@...........
    ..........@@@@@@@@@@@@@@@@..........
    .........@@@@@@@@@@@@@@@@@@.........
    ........@@@@@@@@@@@@@@@@@@@@........
    ....................................
    ....................................
    ....................................
    ....................................
    ....................................
    ....................................
    ....................................
    ....................................

    left-bearing: 5
    right-bearing: 5


0x0d:
    ..................................
    ..................................
    ..................................
    ..................................
    ..................................
    ..................................
    ..................................
    ..........@@@@@@@@@@@@@@@.@.......
    ..........@@@@@@@@@@@@@@@@@@@.....
    ..........@@@@@@@@@@@@@@@@@@@@@...
    ..........................@@@@@@..
    ............................@@@@@.
    .............................@@@@.
    .............................@@@@@
    ..............................@@@@
    ..............................@@@@
    ..............................@@@@
    ..............................@@@@
    ..............................@@@@
    ..............................@@@@
    ..............................@@@@
    ..............................@@@@
    ..............................@@@@
    ..............................@@@@
    ..............................@@@@
    ..............................@@@@
    ..............................@@@@
    ..............................@@@@
    ..............................@@@@
    ..............................@@@@
    ..............................@@@@
    ......@@@.....................@@@@
    .....@@@@....................@@@@@
    ....@@@@@....................@@@@.
    ...@@@@@@...................@@@@@.
    ..@@@@@@@.................@@@@@@..
    .@@@@@@@@@@@@@@@@@@@@@@@@@@@@@@...
    @@@@@@@@@@@@@@@@@@@@@@@@@@@@@.....
    .@@@@@@@@@@@@@@@@@@@@@@@@.@.......
    ..@@@@@@@.........................
    ...@@@@@@.........................
    ....@@@@@.........................
    .....@@@@.........................
    ......@@@.........................
    ..................................
    ..................................
    ..................................
    ..................................
    ..................................
    ..................................
    ..................................
    ..................................

    left-bearing: 5
    right-bearing: 7


0x1c:
    ...........................
    ...........................
    ...........................
    ...........................
    ...........................
    ...........................
    ...........................
    ...........................
    ...........................
    ...........................
    ...........................
    ...........................
    ...........................
    ...........................
    ...........................
    ...........................
    ...........................
    ...........................
    ...........................
    ......@@...................
    .....@@@...................
    ....@@@@...................
    ...@@@@@...................
    ..@@@@@@...................
    .@@@@@@@@@@@@@@@@@@@@@@@@@@
    @@@@@@@@@@@@@@@@@@@@@@@@@@@
    .@@@@@@@@@@@@@@@@@@@@@@@@@@
    ..@@@@@@...................
    ...@@@@@...................
    ....@@@@...................
    .....@@@...................
    ......@@...................
    ...........................
    ...........................
    ...........................
    ...........................
    ...........................
    ...........................
    ...........................
    ...........................
    ...........................
    ...........................
    ...........................
    ...........................
    ...........................
    ...........................
    ...........................
    ...........................
    ...........................
    ...........................
    ...........................
    ...........................

    left-bearing: 2
    right-bearing: 3


0x1d:
    ...........................
    ...........................
    ...........................
    ...........................
    ...........................
    ...........................
    ...........................
    ...........................
    ...........................
    ...........................
    ...........................
    ...........................
    ...........................
    ...........................
    ...........................
    ...........................
    ...........................
    ...........................
    ...........................
    ...................@@......
    ...................@@@.....
    ...................@@@@....
    ...................@@@@@...
    ...................@@@@@@..
    @@@@@@@@@@@@@@@@@@@.@@@@@@.
    @@@@@@@@@@@@@@@@@@@@@@@@@@@
    @@@@@@@@@@@@@@@@@@@.@@@@@@.
    ...................@@@@@@..
    ...................@@@@@...
    ...................@@@@....
    ...................@@@.....
    ...................@@......
    ...........................
    ...........................
    ...........................
    ...........................
    ...........................
    ...........................
    ...........................
    ...........................
    ...........................
    ...........................
    ...........................
    ...........................
    ...........................
    ...........................
    ...........................
    ...........................
    ...........................
    ...........................
    ...........................
    ...........................

    left-bearing: 3
    right-bearing: 2


0x1e:
    .............
    .............
    .............
    .............
    .............
    .............
    .............
    .............
    .............
    .............
    .............
    ......@......
    .....@@@.....
    ....@@@@@....
    ...@@@@@@@...
    ..@@@@@@@@@..
    .@@@@@@@@@@@.
    @@@@@@@@@@@@@
    @@@@@@@@@@@@@
    .....@@@.....
    .....@@@.....
    .....@@@.....
    .....@@@.....
    .....@@@.....
    .....@@@.....
    .....@@@.....
    .....@@@.....
    .....@@@.....
    .....@@@.....
    .....@@@.....
    .....@@@.....
    .....@@@.....
    .....@@@.....
    .....@@@.....
    .....@@@.....
    .....@@@.....
    .....@@@.....
    .....@@@.....
    .............
    .............
    .............
    .............
    .............
    .............
    .............
    .............
    .............
    .............
    .............
    .............
    .............
    .............

    left-bearing: 9
    right-bearing: 10


0x1f:
    .............
    .............
    .............
    .............
    .............
    .............
    .............
    .............
    .............
    .............
    .............
    .....@@@.....
    .....@@@.....
    .....@@@.....
    .....@@@.....
    .....@@@.....
    .....@@@.....
    .....@@@.....
    .....@@@.....
    .....@@@.....
    .....@@@.....
    .....@@@.....
    .....@@@.....
    .....@@@.....
    .....@@@.....
    .....@@@.....
    .....@@@.....
    .....@@@.....
    .....@@@.....
    .....@@@.....
    @@@@@@@@@@@@@
    @@@@@@@@@@@@@
    .@@@@@@@@@@@.
    ..@@@@@@@@@..
    ...@@@@@@@...
    ....@@@@@....
    .....@@@.....
    ......@......
    .............
    .............
    .............
    .............
    .............
    .............
    .............
    .............
    .............
    .............
    .............
    .............
    .............
    .............

    left-bearing: 9
    right-bearing: 10


0x20:
    -

    left-bearing: 10
    right-bearing: 8


0x21:
    .....
    .....
    .....
    .....
    .....
    .....
    .....
    @@@@@
    @@@@@
    @@@@@
    @@@@@
    @@@@@
    @@@@@
    @@@@@
    @@@@@
    @@@@@
    @@@@@
    @@@@@
    @@@@@
    @@@@@
    @@@@@
    @@@@@
    @@@@@
    @@@@@
    @@@@@
    @@@@@
    @@@@@
    @@@@@
    @@@@@
    @@@@@
    @@@@@
    @@@@@
    @@@@@
    @@@@@
    @@@@@
    .....
    .....
    .....
    .....
    @@@@@
    @@@@@
    @@@@@
    @@@@@
    .....
    .....
    .....
    .....
    .....
    .....
    .....
    .....
    .....

    left-bearing: 6
    right-bearing: 7


0x22:
    ..............
    ..............
    ..............
    ..............
    ..............
    ..............
    @@@@@....@@@@@
    @@@@@....@@@@@
    @@@@@....@@@@@
    @@@@@....@@@@@
    @@@@@....@@@@@
    @@@@@....@@@@@
    @@@@@....@@@@@
    @@@@@....@@@@@
    @@@@@....@@@@@
    @@@@@....@@@@@
    ..............
    ..............
    ..............
    ..............
    ..............
    ..............
    ..............
    ..............
    ..............
    ..............
    ..............
    ..............
    ..............
    ..............
    ..............
    ..............
    ..............
    ..............
    ..............
    ..............
    ..............
    ..............
    ..............
    ..............
    ..............
    ..............
    ..............
    ..............
    ..............
    ..............
    ..............
    ..............
    ..............
    ..............
    ..............
    ..............

    left-bearing: 4
    right-bearing: 4


0x23:
    .....................................
    .....................................
    .....................................
    .....................................
    .....................................
    .....................................
    .....................................
    ..................@@@@........@@@@...
    ..................@@@@........@@@@...
    .................@@@@........@@@@....
    .................@@@@........@@@@....
    ................@@@@........@@@@.....
    ................@@@@........@@@@.....
    ...............@@@@........@@@@......
    ...............@@@@........@@@@......
    ..............@@@@........@@@@.......
    ..............@@@@........@@@@.......
    .....@@@@@@@@@@@@@@@@@@@@@@@@@@@@@@@@
    .....@@@@@@@@@@@@@@@@@@@@@@@@@@@@@@@@
    .....@@@@@@@@@@.@@@@@@@@.@@@@@@@@@@@@
    ............@@@@........@@@@.........
    ............@@@@........@@@@.........
    ...........@@@@........@@@@..........
    ...........@@@@........@@@@..........
    ..........@@@@........@@@@...........
    ..........@@@@........@@@@...........
    .........@@@@........@@@@............
    .........@@@@........@@@@............
    @@@@@@@@@@@@.@@@@@@@@.@@@@@@@@@@.....
    @@@@@@@@@@@@@@@@@@@@@@@@@@@@@@@@.....
    @@@@@@@@@@@@@@@@@@@@@@@@@@@@@@@@.....
    .......@@@@........@@@@..............
    .......@@@@........@@@@..............
    ......@@@@........@@@@...............
    ......@@@@........@@@@...............
    .....@@@@........@@@@................
    .....@@@@........@@@@................
    ....@@@@........@@@@.................
    ....@@@@........@@@@.................
    ...@@@@........@@@@..................
    ...@@@@........@@@@..................
    .....................................
    .....................................
    .....................................
    .....................................
    .....................................
    .....................................
    .....................................
    .....................................
    .....................................
    .....................................
    .....................................

    left-bearing: 4
    right-bearing: 5


0x24:
    ..........................
    ..........................
    ..........................
    ............@@............
    ............@@............
    ............@@............
    ............@@............
    ........@.@@@@@@.@........
    ......@@@@@@@@@@@@@@......
    ....@@@@@@@@@@@@@@@@@@....
    ...@@@@@@@@@@@@@@@@@@@@...
    ..@@@@@@@...@@...@@@@@@@..
    ..@@@@@.....@@.....@@@@@@.
    .@@@@@......@@......@@@@@.
    .@@@@@......@@......@@@@@@
    .@@@@@......@@.......@@@@@
    .@@@@@......@@.......@@@@@
    .@@@@@......@@............
    ..@@@@@.....@@............
    ..@@@@@@....@@............
    ...@@@@@@...@@............
    ....@@@@@@@.@@............
    .....@@@@@@@.@............
    ......@@@@@@@@............
    ........@@@@@@@@..........
    .........@@@@@@@@@........
    ...........@@@@@@@@@......
    ............@.@@@@@@@@....
    ............@@.@@@@@@@@...
    ............@@...@@@@@@@..
    ............@@.....@@@@@@.
    ............@@......@@@@@@
    ............@@.......@@@@@
    @@@@@.......@@.......@@@@@
    @@@@@.......@@.......@@@@@
    @@@@@@......@@.......@@@@@
    .@@@@@......@@.......@@@@@
    .@@@@@@.....@@......@@@@@.
    ..@@@@@@@...@@....@@@@@@@.
    ...@@@@@@@@@@@@@@@@@@@@@..
    ....@@@@@@@@@@@@@@@@@@@...
    ......@@@@@@@@@@@@@@@.....
    ........@.@@@@@@@.@.......
    ............@@............
    ............@@............
    ............@@............
    ............@@............
    ..........................
    ..........................
    ..........................
    ..........................
    ..........................

    left-bearing: 3
    right-bearing: 3


0x25:
    .......................................
    .......................................
    .......................................
    .......................................
    .......................................
    .......................................
    ......@@@@@@...........................
    ....@@@@@@@@@@.........................
    ..@@@@@....@@@@@.......................
    .@@@@........@@@@...............@@@@...
    .@@@..........@@@..............@@@@....
    @@@@..........@@@@............@@@@.....
    @@@@..........@@@@...........@@@@......
    @@@@..........@@@@..........@@@@.......
    @@@@..........@@@@.........@@@@........
    @@@@..........@@@@........@@@@.........
    @@@@..........@@@@.......@@@@..........
    @@@@..........@@@@......@@@@...........
    .@@@..........@@@......@@@@............
    .@@@@........@@@@.....@@@@.............
    ..@@@@@....@@@@@.....@@@@..............
    ....@@@@@@@@@@......@@@@...............
    ......@@@@@@.......@@@@................
    ..................@@@@.................
    .................@@@@..................
    ................@@@@.......@@@@@@......
    ...............@@@@......@@@@@@@@@@....
    ..............@@@@.....@@@@@....@@@@@..
    .............@@@@.....@@@@........@@@@.
    ............@@@@......@@@..........@@@.
    ...........@@@@......@@@@..........@@@@
    ..........@@@@.......@@@@..........@@@@
    .........@@@@........@@@@..........@@@@
    ........@@@@.........@@@@..........@@@@
    .......@@@@..........@@@@..........@@@@
    ......@@@@...........@@@@..........@@@@
    .....@@@@............@@@@..........@@@@
    ....@@@@.............@@@@..........@@@@
    ......................@@@..........@@@.
    ......................@@@@........@@@@.
    .......................@@@@@....@@@@@..
    .........................@@@@@@@@@@....
    ...........................@@@@@@......
    .......................................
    .......................................
    .......................................
    .......................................
    .......................................
    .......................................
    .......................................
    .......................................
    .......................................

    left-bearing: 3
    right-bearing: 4


0x26:
    ...............................
    ...............................
    ...............................
    ...............................
    ...............................
    ...............................
    ...............................
    ...............................
    .........@@@@..................
    .......@@@@@@@@................
    .....@@@@@@@@@@@@..............
    ....@@@@@@@@@@@@@@.............
    ...@@@@@@....@@@@@@............
    ...@@@@@......@@@@@............
    ..@@@@@........@@@@@...........
    ..@@@@@........@@@@@...........
    ..@@@@@........@@@@@...........
    ...@@@@........@@@@............
    ...@@@@@......@@@@@............
    ....@@@@@....@@@@@.............
    .....@@@@@..@@@@@..............
    ......@@@@@@@@@@...............
    ........@@@@@@.................
    .........@@@@@.................
    .......@@@@@@@@................
    .....@@@@@.@@@@@...............
    ....@@@@@...@@@@@..............
    ...@@@@@.....@@@@@.............
    ..@@@@@.......@@@@@......@@@@@.
    .@@@@@.........@@@@......@@@@@.
    .@@@@..........@@@@@....@@@@@..
    @@@@@...........@@@@@..@@@@@...
    @@@@@............@@@@@@@@@@....
    @@@@@.............@@@@@@@@.....
    @@@@@..............@@@@@@......
    @@@@@..............@@@@@.......
    .@@@@@............@@@@@@@......
    .@@@@@@..........@@@@@@@@@.....
    ..@@@@@@@......@@@@@@.@@@@@....
    ...@@@@@@@@@@@@@@@@@...@@@@@...
    ....@@@@@@@@@@@@@@......@@@@@..
    ......@@@@@@@@@@@........@@@@@.
    ........@@@@@@@...........@@@@@
    ...............................
    ...............................
    ...............................
    ...............................
    ...............................
    ...............................
    ...............................
    ...............................
    ...............................

    left-bearing: 3
    right-bearing: 1


0x27:
    .....
    .....
    .....
    .....
    .....
    .....
    @@@@@
    @@@@@
    @@@@@
    @@@@@
    @@@@@
    @@@@@
    @@@@@
    @@@@@
    @@@@@
    @@@@@
    .....
    .....
    .....
    .....
    .....
    .....
    .....
    .....
    .....
    .....
    .....
    .....
    .....
    .....
    .....
    .....
    .....
    .....
    .....
    .....
    .....
    .....
    .....
    .....
    .....
    .....
    .....
    .....
    .....
    .....
    .....
    .....
    .....
    .....
    .....
    .....

    left-bearing: 4
    right-bearing: 4


0x28:
    ..............
    ..............
    ..............
    ..............
    ..........@@..
    .........@@@@@
    ........@@@@@.
    .......@@@@@..
    ......@@@@@...
    .....@@@@@....
    .....@@@@.....
    ....@@@@......
    ....@@@@......
    ...@@@@.......
    ...@@@@.......
    ..@@@@........
    ..@@@@........
    .@@@@.........
    .@@@@.........
    .@@@@.........
    @@@@..........
    @@@@..........
    @@@@..........
    @@@@..........
    @@@@..........
    @@@@..........
    @@@@..........
    @@@@..........
    @@@@..........
    @@@@..........
    @@@@..........
    @@@@..........
    @@@@..........
    @@@@..........
    @@@@..........
    .@@@@.........
    .@@@@.........
    .@@@@.........
    ..@@@@........
    ..@@@@........
    ...@@@@.......
    ...@@@@.......
    ....@@@@......
    ....@@@@......
    .....@@@@.....
    .....@@@@@....
    ......@@@@@...
    .......@@@@@..
    ........@@@@@.
    .........@@@@@
    ..........@@..
    ..............

    left-bearing: 3
    right-bearing: 1


0x29:
    ..............
    ..............
    ..............
    ..............
    ..@@..........
    @@@@@.........
    .@@@@@........
    ..@@@@@.......
    ...@@@@@......
    ....@@@@@.....
    .....@@@@.....
    ......@@@@....
    ......@@@@....
    .......@@@@...
    .......@@@@...
    ........@@@@..
    ........@@@@..
    .........@@@@.
    .........@@@@.
    .........@@@@.
    ..........@@@@
    ..........@@@@
    ..........@@@@
    ..........@@@@
    ..........@@@@
    ..........@@@@
    ..........@@@@
    ..........@@@@
    ..........@@@@
    ..........@@@@
    ..........@@@@
    ..........@@@@
    ..........@@@@
    ..........@@@@
    ..........@@@@
    .........@@@@.
    .........@@@@.
    .........@@@@.
    ........@@@@..
    ........@@@@..
    .......@@@@...
    .......@@@@...
    ......@@@@....
    ......@@@@....
    .....@@@@.....
    ....@@@@@.....
    ...@@@@@......
    ..@@@@@.......
    .@@@@@........
    @@@@@.........
    ..@@..........
    ..............

    left-bearing: 1
    right-bearing: 3


0x2a:
    ...................
    ...................
    ...................
    ...................
    ...................
    ...................
    ...................
    ...................
    ...................
    ...................
    ...@@.........@@...
    ..@@@@.......@@@@..
    ...@@@@.....@@@@...
    ....@@@@...@@@@....
    .....@@@@.@@@@.....
    ......@@@@@@@......
    @@@@@@@@@@@@@@@@@@@
    @@@@@@@@@@@@@@@@@@@
    ......@@@@@@@......
    .....@@@@.@@@@.....
    ....@@@@...@@@@....
    ...@@@@.....@@@@...
    ..@@@@.......@@@@..
    ...@@.........@@...
    ...................
    ...................
    ...................
    ...................
    ...................
    ...................
    ...................
    ...................
    ...................
    ...................
    ...................
    ...................
    ...................
    ...................
    ...................
    ...................
    ...................
    ...................
    ...................
    ...................
    ...................
    ...................
    ...................
    ...................
    ...................
    ...................
    ...................
    ...................

    left-bearing: 7
    right-bearing: 6


0x2b:
    ......................................
    ......................................
    ......................................
    ......................................
    ......................................
    ......................................
    ......................................
    ......................................
    .................@@@@.................
    .................@@@@.................
    .................@@@@.................
    .................@@@@.................
    .................@@@@.................
    .................@@@@.................
    .................@@@@.................
    .................@@@@.................
    .................@@@@.................
    .................@@@@.................
    .................@@@@.................
    .................@@@@.................
    .................@@@@.................
    .................@@@@.................
    .................@@@@.................
    .................@@@@.................
    @@@@@@@@@@@@@@@@@.@@.@@@@@@@@@@@@@@@@@
    @@@@@@@@@@@@@@@@@@@@@@@@@@@@@@@@@@@@@@
    @@@@@@@@@@@@@@@@@.@@.@@@@@@@@@@@@@@@@@
    .................@@@@.................
    .................@@@@.................
    .................@@@@.................
    .................@@@@.................
    .................@@@@.................
    .................@@@@.................
    .................@@@@.................
    .................@@@@.................
    .................@@@@.................
    .................@@@@.................
    .................@@@@.................
    .................@@@@.................
    .................@@@@.................
    .................@@@@.................
    .................@@@@.................
    .................@@@@.................
    ......................................
    ......................................
    ......................................
    ......................................
    ......................................
    ......................................
    ......................................
    ......................................
    ......................................

    left-bearing: 4
    right-bearing: 4


0x2c:
    ........
    ........
    ........
    ........
    ........
    ........
    ........
    ........
    ........
    ........
    ........
    ........
    ........
    ........
    ........
    ........
    ........
    ........
    ........
    ........
    ........
    ........
    ........
    ........
    ........
    ........
    ........
    ........
    ........
    ........
    ........
    ........
    ........
    ........
    ........
    ........
    ........
    ........
    ........
    ..@@@@@@
    ..@@@@@@
    ..@@@@@.
    ..@@@@@.
    .@@@@@..
    .@@@@@..
    @@@@@...
    @@@@@...
    ........
    ........
    ........
    ........
    ........

    right-bearing: 2


0x2d:
    ......................................
    ......................................
    ......................................
    ......................................
    ......................................
    ......................................
    ......................................
    ......................................
    ......................................
    ......................................
    ......................................
    ......................................
    ......................................
    ......................................
    ......................................
    ......................................
    ......................................
    ......................................
    ......................................
    ......................................
    ......................................
    ......................................
    ......................................
    ......................................
    @@@@@@@@@@@@@@@@@@@@@@@@@@@@@@@@@@@@@@
    @@@@@@@@@@@@@@@@@@@@@@@@@@@@@@@@@@@@@@
    @@@@@@@@@@@@@@@@@@@@@@@@@@@@@@@@@@@@@@
    ......................................
    ......................................
    ......................................
    ......................................
    ......................................
    ......................................
    ......................................
    ......................................
    ......................................
    ......................................
    ......................................
    ......................................
    ......................................
    ......................................
    ......................................
    ......................................
    ......................................
    ......................................
    ......................................
    ......................................
    ......................................
    ......................................
    ......................................
    ......................................
    ......................................

    left-bearing: 4
    right-bearing: 4


0x2e:
    .....
    .....
    .....
    .....
    .....
    .....
    .....
    .....
    .....
    .....
    .....
    .....
    .....
    .....
    .....
    .....
    .....
    .....
    .....
    .....
    .....
    .....
    .....
    .....
    .....
    .....
    .....
    .....
    .....
    .....
    .....
    .....
    .....
    .....
    .....
    .....
    .....
    .....
    .....
    @@@@@
    @@@@@
    @@@@@
    @@@@@
    .....
    .....
    .....
    .....
    .....
    .....
    .....
    .....
    .....

    left-bearing: 3
    right-bearing: 2


0x2f:
    ................
    ................
    ................
    ................
    ................
    ................
    ................
    .............@@@
    .............@@@
    .............@@@
    ............@@@.
    ............@@@.
    ...........@@@..
    ...........@@@..
    ...........@@@..
    ..........@@@...
    ..........@@@...
    .........@@@....
    .........@@@....
    .........@@@....
    ........@@@.....
    ........@@@.....
    .......@@@......
    .......@@@......
    .......@@@......
    ......@@@.......
    ......@@@.......
    ......@@@.......
    .....@@@........
    .....@@@........
    ....@@@.........
    ....@@@.........
    ....@@@.........
    ...@@@..........
    ...@@@..........
    ..@@@...........
    ..@@@...........
    ..@@@...........
    .@@@............
    .@@@............
    @@@.............
    @@@.............
    @@@.............
    ................
    ................
    ................
    ................
    ................
    ................
    ................
    ................
    ................

    left-bearing: 1
    right-bearing: 1


0x30:
    .........................
    .........................
    .........................
    .........................
    .........................
    .........................
    .........................
    .........................
    .........@@@@@@@.........
    .......@@@@@@@@@@@.......
    .....@@@@@@@@@@@@@@@.....
    ...@@@@@@@@@@@@@@@@@@@...
    ..@@@@@@@.......@@@@@@@..
    .@@@@@@...........@@@@@@.
    .@@@@@.............@@@@@.
    @@@@@@.............@@@@@@
    @@@@@...............@@@@@
    @@@@@...............@@@@@
    @@@@@...............@@@@@
    @@@@@...............@@@@@
    @@@@@...............@@@@@
    @@@@@...............@@@@@
    @@@@@...............@@@@@
    @@@@@...............@@@@@
    @@@@@...............@@@@@
    @@@@@...............@@@@@
    @@@@@...............@@@@@
    @@@@@...............@@@@@
    @@@@@...............@@@@@
    @@@@@...............@@@@@
    @@@@@...............@@@@@
    @@@@@...............@@@@@
    @@@@@...............@@@@@
    @@@@@...............@@@@@
    @@@@@...............@@@@@
    @@@@@@.............@@@@@@
    .@@@@@.............@@@@@.
    .@@@@@@...........@@@@@@.
    ..@@@@@@@.......@@@@@@@..
    ...@@@@@@@@@@@@@@@@@@@...
    .....@@@@@@@@@@@@@@@.....
    .......@@@@@@@@@@@.......
    .........@@@@@@@.........
    .........................
    .........................
    .........................
    .........................
    .........................
    .........................
    .........................
    .........................
    .........................

    left-bearing: 3
    right-bearing: 4


0x31:
    ...............
    ...............
    ...............
    ...............
    ...............
    ...............
    ...............
    ...............
    ..........@@@@@
    ..........@@@@@
    ..........@@@@@
    .........@@@@@@
    ........@@@@@@@
    .....@@@@@@@@@@
    @@@@@@@@@@@@@@@
    @@@@@@@@@@@@@@@
    @@@@@@@@@@@@@@@
    @@@@@@@@@@.@@@@
    ..........@@@@@
    ..........@@@@@
    ..........@@@@@
    ..........@@@@@
    ..........@@@@@
    ..........@@@@@
    ..........@@@@@
    ..........@@@@@
    ..........@@@@@
    ..........@@@@@
    ..........@@@@@
    ..........@@@@@
    ..........@@@@@
    ..........@@@@@
    ..........@@@@@
    ..........@@@@@
    ..........@@@@@
    ..........@@@@@
    ..........@@@@@
    ..........@@@@@
    ..........@@@@@
    ..........@@@@@
    ..........@@@@@
    ..........@@@@@
    ..........@@@@@
    ...............
    ...............
    ...............
    ...............
    ...............
    ...............
    ...............
    ...............
    ...............

    left-bearing: 6
    right-bearing: 11


0x32:
    ........................
    ........................
    ........................
    ........................
    ........................
    ........................
    ........................
    ........................
    ........@.@@@@@.@.......
    ......@@@@@@@@@@@@@.....
    ....@@@@@@@@@@@@@@@@@...
    ...@@@@@@@@@@@@@@@@@@@..
    ..@@@@@@@.......@@@@@@..
    .@@@@@@..........@@@@@@.
    .@@@@@............@@@@@.
    @@@@@@............@@@@@@
    @@@@@..............@@@@@
    @@@@@..............@@@@@
    ...................@@@@@
    ...................@@@@@
    ..................@@@@@.
    .................@@@@@@.
    ................@@@@@@..
    ...............@@@@@@...
    ..............@@@@@@....
    .............@@@@@@.....
    ............@@@@@@......
    ...........@@@@@@.......
    ..........@@@@@@........
    ........@@@@@@@.........
    .......@@@@@@...........
    ......@@@@@@............
    .....@@@@@@.............
    ....@@@@@@..............
    ...@@@@@@...............
    ..@@@@@@................
    ..@@@@@.................
    .@@@@@..................
    .@@@@@..................
    @@@@@.@@@@@@@@@@@@@@@@@@
    @@@@@@@@@@@@@@@@@@@@@@@@
    @@@@@@@@@@@@@@@@@@@@@@@@
    @@@@@@@@@@@@@@@@@@@@@@@@
    ........................
    ........................
    ........................
    ........................
    ........................
    ........................
    ........................
    ........................
    ........................

    left-bearing: 4
    right-bearing: 4


0x33:
    .........................
    .........................
    .........................
    .........................
    .........................
    .........................
    .........................
    .........................
    ........@.@@@@.@.........
    ......@@@@@@@@@@@@.......
    ....@@@@@@@@@@@@@@@@.....
    ...@@@@@@@@@@@@@@@@@@....
    ..@@@@@@@......@@@@@@@...
    .@@@@@@..........@@@@@@..
    .@@@@@............@@@@@..
    @@@@@..............@@@@@.
    @@@@@..............@@@@@.
    @@@@@..............@@@@@.
    ...................@@@@@.
    ...................@@@@@.
    ..................@@@@@..
    ..................@@@@@..
    ................@@@@@@...
    .........@@@@@@@@@@@@....
    .........@@@@@@@@@@......
    .........@@@@@@@@@@@@....
    .........@@@@@@@@@@@@@@..
    .................@@@@@@@.
    ...................@@@@@.
    ...................@@@@@@
    ....................@@@@@
    ....................@@@@@
    ....................@@@@@
    @@@@@...............@@@@@
    @@@@@...............@@@@@
    @@@@@...............@@@@@
    .@@@@@.............@@@@@.
    .@@@@@@...........@@@@@@.
    ..@@@@@@@.......@@@@@@@..
    ...@@@@@@@@@@@@@@@@@@@...
    ....@@@@@@@@@@@@@@@@@....
    ......@@@@@@@@@@@@@......
    ........@.@@@@@.@........
    .........................
    .........................
    .........................
    .........................
    .........................
    .........................
    .........................
    .........................
    .........................

    left-bearing: 3
    right-bearing: 4


0x34:
    ..........................
    ..........................
    ..........................
    ..........................
    ..........................
    ..........................
    ..........................
    ..........................
    ...............@@@@@@.....
    ..............@@@@@@@.....
    .............@@@@@@@@.....
    .............@@@@@@@@.....
    ............@@@@@@@@@.....
    ...........@@@@@.@@@@.....
    ...........@@@@@.@@@@.....
    ..........@@@@@.@@@@@.....
    .........@@@@@..@@@@@.....
    .........@@@@@..@@@@@.....
    ........@@@@@...@@@@@.....
    ........@@@@@...@@@@@.....
    .......@@@@@....@@@@@.....
    ......@@@@@.....@@@@@.....
    ......@@@@@.....@@@@@.....
    .....@@@@@......@@@@@.....
    ....@@@@@.......@@@@@.....
    ....@@@@@.......@@@@@.....
    ...@@@@@........@@@@@.....
    ..@@@@@.........@@@@@.....
    ..@@@@@.........@@@@@.....
    .@@@@@..........@@@@@.....
    @@@@@@@@@@@@@@@@.@@@@@@@@@
    @@@@@@@@@@@@@@@@@@@@@@@@@@
    @@@@@@@@@@@@@@@@@@@@@@@@@@
    @@@@@@@@@@@@@@@@@@@@@@@@@@
    ................@@@@@.....
    ................@@@@@.....
    ................@@@@@.....
    ................@@@@@.....
    ................@@@@@.....
    ................@@@@@.....
    ................@@@@@.....
    ................@@@@@.....
    ................@@@@@.....
    ..........................
    ..........................
    ..........................
    ..........................
    ..........................
    ..........................
    ..........................
    ..........................
    ..........................

    left-bearing: 3
    right-bearing: 3


0x35:
    ........................
    ........................
    ........................
    ........................
    ........................
    ........................
    ........................
    ........................
    .@@@@@@@@@@@@@@@@@@@@...
    .@@@@@@@@@@@@@@@@@@@@...
    .@@@@@@@@@@@@@@@@@@@@...
    .@@@@.@@@@@@@@@@@@@@@...
    .@@@@@..................
    .@@@@@..................
    .@@@@@..................
    .@@@@@..................
    .@@@@@..................
    .@@@@@..................
    .@@@@@..................
    .@@@@@..................
    .@@@@@..................
    .@@@@@..@.@@@@.@........
    .@@@@.@@@@@@@@@@@@......
    .@@@@@@@@@@@@@@@@@@@....
    .@@@@@@@@@@@@@@@@@@@@...
    .@@@@@@........@@@@@@@..
    .@@@@............@@@@@@.
    ..................@@@@@.
    ...................@@@@@
    ...................@@@@@
    ...................@@@@@
    ...................@@@@@
    ...................@@@@@
    @@@@@..............@@@@@
    @@@@@..............@@@@@
    @@@@@..............@@@@@
    .@@@@@............@@@@@.
    .@@@@@@..........@@@@@@.
    ..@@@@@@@......@@@@@@@..
    ...@@@@@@@@@@@@@@@@@@...
    ....@@@@@@@@@@@@@@@@....
    ......@@@@@@@@@@@@......
    ........@.@@@@.@........
    ........................
    ........................
    ........................
    ........................
    ........................
    ........................
    ........................
    ........................
    ........................

    left-bearing: 4
    right-bearing: 4


0x36:
    .........................
    .........................
    .........................
    .........................
    .........................
    .........................
    .........................
    .........................
    ........@.@@@@@.@........
    ......@@@@@@@@@@@@@......
    ....@@@@@@@@@@@@@@@@@....
    ...@@@@@@@@@@@@@@@@@@@...
    ..@@@@@@@.......@@@@@@@..
    .@@@@@@...........@@@@@..
    .@@@@@.............@@@@@.
    @@@@@@.............@@@@@.
    @@@@@..............@@@@@.
    @@@@@....................
    @@@@@....................
    @@@@@....................
    @@@@@....................
    @@@@@.....@.@@@.@........
    @@@@@...@@@@@@@@@@@......
    @@@@@.@@@@@@@@@@@@@@@....
    @@@@.@@@@@@@@@@@@@@@@@...
    @@@@@@@@@.......@@@@@@@..
    @@@@@@@...........@@@@@@.
    @@@@@@.............@@@@@.
    @@@@@...............@@@@@
    @@@@@...............@@@@@
    @@@@@...............@@@@@
    @@@@@...............@@@@@
    @@@@@...............@@@@@
    @@@@@...............@@@@@
    @@@@@...............@@@@@
    @@@@@...............@@@@@
    .@@@@@.............@@@@@.
    .@@@@@@...........@@@@@@.
    ..@@@@@@@.......@@@@@@@..
    ...@@@@@@@@@@@@@@@@@@@...
    ....@@@@@@@@@@@@@@@@@....
    ......@@@@@@@@@@@@@......
    ........@.@@@@@.@........
    .........................
    .........................
    .........................
    .........................
    .........................
    .........................
    .........................
    .........................
    .........................

    left-bearing: 4
    right-bearing: 3


0x37:
    .........................
    .........................
    .........................
    .........................
    .........................
    .........................
    .........................
    .........................
    @@@@@@@@@@@@@@@@@@@@@@@@@
    @@@@@@@@@@@@@@@@@@@@@@@@@
    @@@@@@@@@@@@@@@@@@@@@@@@@
    @@@@@@@@@@@@@@@@@@@.@@@@@
    ...................@@@@@.
    ...................@@@@@.
    ..................@@@@@..
    ..................@@@@@..
    .................@@@@@...
    .................@@@@@...
    ................@@@@@....
    ................@@@@@....
    ...............@@@@@.....
    ...............@@@@@.....
    ..............@@@@@......
    ..............@@@@@......
    .............@@@@@.......
    .............@@@@@.......
    ............@@@@@........
    ............@@@@@........
    ...........@@@@@.........
    ...........@@@@@.........
    ...........@@@@@.........
    ..........@@@@@..........
    ..........@@@@@..........
    ..........@@@@@..........
    .........@@@@@...........
    .........@@@@@...........
    .........@@@@@...........
    ........@@@@@............
    ........@@@@@............
    ........@@@@@............
    .......@@@@@.............
    .......@@@@@.............
    .......@@@@@.............
    .........................
    .........................
    .........................
    .........................
    .........................
    .........................
    .........................
    .........................
    .........................

    left-bearing: 3
    right-bearing: 4


0x38:
    .........................
    .........................
    .........................
    .........................
    .........................
    .........................
    .........................
    .........................
    ........@.@@@@@.@........
    ......@@@@@@@@@@@@@......
    ....@@@@@@@@@@@@@@@@@....
    ...@@@@@@@@@@@@@@@@@@@...
    ..@@@@@@@.......@@@@@@@..
    ..@@@@@...........@@@@@..
    .@@@@@.............@@@@@.
    .@@@@@.............@@@@@.
    .@@@@@.............@@@@@.
    .@@@@@.............@@@@@.
    .@@@@@.............@@@@@.
    .@@@@@.............@@@@@.
    ..@@@@@...........@@@@@..
    ..@@@@@@.........@@@@@@..
    ...@@@@@@@.....@@@@@@@...
    .....@@@@@@@@@@@@@@@.....
    .......@@@@@@@@@@@.......
    .....@@@@@@@@@@@@@@@.....
    ...@@@@@@@@@@@@@@@@@@@...
    ..@@@@@@@.......@@@@@@@..
    .@@@@@@...........@@@@@@.
    .@@@@@.............@@@@@.
    @@@@@...............@@@@@
    @@@@@...............@@@@@
    @@@@@...............@@@@@
    @@@@@...............@@@@@
    @@@@@...............@@@@@
    @@@@@...............@@@@@
    .@@@@@.............@@@@@.
    .@@@@@@...........@@@@@@.
    ..@@@@@@@.......@@@@@@@..
    ...@@@@@@@@@@@@@@@@@@@...
    ....@@@@@@@@@@@@@@@@@....
    ......@@@@@@@@@@@@@......
    ........@.@@@@@.@........
    .........................
    .........................
    .........................
    .........................
    .........................
    .........................
    .........................
    .........................
    .........................

    left-bearing: 3
    right-bearing: 4


0x39:
    .........................
    .........................
    .........................
    .........................
    .........................
    .........................
    .........................
    .........................
    ........@.@@@@@.@........
    ......@@@@@@@@@@@@@......
    ....@@@@@@@@@@@@@@@@@....
    ...@@@@@@@@@@@@@@@@@@@...
    ..@@@@@@@.......@@@@@@@..
    .@@@@@@...........@@@@@@.
    .@@@@@.............@@@@@.
    @@@@@...............@@@@@
    @@@@@...............@@@@@
    @@@@@...............@@@@@
    @@@@@...............@@@@@
    @@@@@...............@@@@@
    @@@@@...............@@@@@
    @@@@@...............@@@@@
    @@@@@...............@@@@@
    .@@@@@.............@@@@@@
    .@@@@@@...........@@@@@@@
    ..@@@@@@@.......@@@@@@@@@
    ...@@@@@@@@@@@@@@@@@.@@@@
    ....@@@@@@@@@@@@@@@.@@@@@
    ......@@@@@@@@@@@...@@@@@
    ........@.@@@.@.....@@@@@
    ....................@@@@@
    ....................@@@@@
    ....................@@@@@
    ....................@@@@@
    .@@@@@..............@@@@@
    .@@@@@..............@@@@@
    .@@@@@.............@@@@@.
    ..@@@@@...........@@@@@@.
    ..@@@@@@@.......@@@@@@@..
    ...@@@@@@@@@@@@@@@@@@@...
    ....@@@@@@@@@@@@@@@@@....
    ......@@@@@@@@@@@@@......
    ........@.@@@@@.@........
    .........................
    .........................
    .........................
    .........................
    .........................
    .........................
    .........................
    .........................
    .........................

    left-bearing: 3
    right-bearing: 4


0x3a:
    .....
    .....
    .....
    .....
    .....
    .....
    .....
    .....
    .....
    .....
    .....
    .....
    .....
    .....
    .....
    .....
    .....
    .....
    .....
    @@@@@
    @@@@@
    @@@@@
    @@@@@
    .....
    .....
    .....
    .....
    .....
    .....
    .....
    .....
    .....
    .....
    .....
    .....
    .....
    .....
    .....
    .....
    @@@@@
    @@@@@
    @@@@@
    @@@@@
    .....
    .....
    .....
    .....
    .....
    .....
    .....
    .....
    .....

    left-bearing: 3
    right-bearing: 2


0x3b:
    ........
    ........
    ........
    ........
    ........
    ........
    ........
    ........
    ........
    ........
    ........
    ........
    ........
    ........
    ........
    ........
    ........
    ........
    ........
    ...@@@@@
    ...@@@@@
    ...@@@@@
    ...@@@@@
    ........
    ........
    ........
    ........
    ........
    ........
    ........
    ........
    ........
    ........
    ........
    ........
    ........
    ........
    ........
    ........
    ..@@@@@@
    ..@@@@@@
    ..@@@@@.
    ..@@@@@.
    .@@@@@..
    .@@@@@..
    @@@@@...
    @@@@@...
    ........
    ........
    ........
    ........
    ........

    right-bearing: 2


0x3c:
    .....................
    .....................
    .....................
    .....................
    .....................
    .....................
    .....................
    .....................
    .................@@@@
    ................@@@@.
    ...............@@@@..
    ..............@@@@...
    .............@@@@....
    ............@@@@.....
    ...........@@@@......
    ..........@@@@.......
    .........@@@@........
    ........@@@@.........
    .......@@@@..........
    ......@@@@...........
    .....@@@@............
    ....@@@@.............
    ...@@@@..............
    ..@@@@...............
    .@@@@................
    @@@@.................
    .@@@@................
    ..@@@@...............
    ...@@@@..............
    ....@@@@.............
    .....@@@@............
    ......@@@@...........
    .......@@@@..........
    ........@@@@.........
    .........@@@@........
    ..........@@@@.......
    ...........@@@@......
    ............@@@@.....
    .............@@@@....
    ..............@@@@...
    ...............@@@@..
    ................@@@@.
    .................@@@@
    .....................
    .....................
    .....................
    .....................
    .....................
    .....................
    .....................
    .....................
    .....................

    left-bearing: 5
    right-bearing: 6


0x3d:
    ......................................
    ......................................
    ......................................
    ......................................
    ......................................
    ......................................
    ......................................
    ......................................
    ......................................
    ......................................
    ......................................
    ......................................
    ......................................
    ......................................
    ......................................
    ......................................
    ......................................
    ......................................
    ......................................
    ......................................
    @@@@@@@@@@@@@@@@@@@@@@@@@@@@@@@@@@@@@@
    @@@@@@@@@@@@@@@@@@@@@@@@@@@@@@@@@@@@@@
    @@@@@@@@@@@@@@@@@@@@@@@@@@@@@@@@@@@@@@
    ......................................
    ......................................
    ......................................
    ......................................
    ......................................
    @@@@@@@@@@@@@@@@@@@@@@@@@@@@@@@@@@@@@@
    @@@@@@@@@@@@@@@@@@@@@@@@@@@@@@@@@@@@@@
    @@@@@@@@@@@@@@@@@@@@@@@@@@@@@@@@@@@@@@
    ......................................
    ......................................
    ......................................
    ......................................
    ......................................
    ......................................
    ......................................
    ......................................
    ......................................
    ......................................
    ......................................
    ......................................
    ......................................
    ......................................
    ......................................
    ......................................
    ......................................
    ......................................
    ......................................
    ......................................
    ......................................

    left-bearing: 4
    right-bearing: 4


0x3e:
    .....................
    .....................
    .....................
    .....................
    .....................
    .....................
    .....................
    .....................
    @@@@.................
    .@@@@................
    ..@@@@...............
    ...@@@@..............
    ....@@@@.............
    .....@@@@............
    ......@@@@...........
    .......@@@@..........
    ........@@@@.........
    .........@@@@........
    ..........@@@@.......
    ...........@@@@......
    ............@@@@.....
    .............@@@@....
    ..............@@@@...
    ...............@@@@..
    ................@@@@.
    .................@@@@
    ................@@@@.
    ...............@@@@..
    ..............@@@@...
    .............@@@@....
    ............@@@@.....
    ...........@@@@......
    ..........@@@@.......
    .........@@@@........
    ........@@@@.........
    .......@@@@..........
    ......@@@@...........
    .....@@@@............
    ....@@@@.............
    ...@@@@..............
    ..@@@@...............
    .@@@@................
    @@@@.................
    .....................
    .....................
    .....................
    .....................
    .....................
    .....................
    .....................
    .....................
    .....................

    left-bearing: 6
    right-bearing: 5


0x3f:
    .........................
    .........................
    .........................
    .........................
    .........................
    .........................
    .........................
    .........................
    .........@.@@@.@.........
    .......@@@@@@@@@@@.......
    .....@@@@@@@@@@@@@@@.....
    ...@@@@@@@@@@@@@@@@@@@...
    ..@@@@@@@.......@@@@@@@..
    ..@@@@@...........@@@@@@.
    .@@@@@.............@@@@@.
    .@@@@@.............@@@@@@
    @@@@@...............@@@@@
    @@@@@...............@@@@@
    @@@@@...............@@@@@
    ....................@@@@@
    ...................@@@@@.
    ..................@@@@@@.
    .................@@@@@@..
    ................@@@@@@...
    ...............@@@@@@....
    ..............@@@@@@.....
    .............@@@@@@......
    ............@@@@@@.......
    ...........@@@@@@........
    ..........@@@@@@.........
    ...........@@@@..........
    ..........@@@@@..........
    ..........@@@@@..........
    ..........@@@@@..........
    ..........@@@@@..........
    .........................
    .........................
    .........................
    .........................
    ..........@@@@@..........
    ..........@@@@@..........
    ..........@@@@@..........
    ..........@@@@@..........
    .........................
    .........................
    .........................
    .........................
    .........................
    .........................
    .........................
    .........................
    .........................

    left-bearing: 3
    right-bearing: 4


0x40:
    ......................................
    ......................................
    ......................................
    ......................................
    ......................................
    ......................................
    ......................................
    ......................................
    ......................................
    ...........@@@@@@@@@@@@@@@@...........
    .........@@@@@@@@@@@@@@@@@@@@.........
    .......@@@@................@@@@.......
    .....@@@@....................@@@@.....
    ....@@@........................@@@....
    ...@@@..........................@@@...
    ..@@@............................@@@..
    ..@@@............................@@@..
    .@@@..........@@@@@@@@@@@@@.......@@@.
    .@@@........@@@@@@@@@@@@@@@.......@@@.
    @@@........@@@@@@@@@@@@.@@@........@@@
    @@@........@@@@........@@@@........@@@
    @@@.......@@@@.........@@@@........@@@
    @@@.......@@@@.........@@@@........@@@
    @@@.......@@@@.........@@@@........@@@
    @@@.......@@@@.........@@@@........@@@
    @@@.......@@@@........@@@@@........@@@
    @@@.......@@@@.......@@@@@@........@@@
    @@@.......@@@@......@@@@@@@........@@@
    @@@.......@@@@@....@@@@.@@@.......@@@.
    @@@........@@@@@@@@@@@...@@@.....@@@@.
    .@@@........@@@@@@@@@...@@@@@@@@@@@@..
    .@@@..........@@@@@.......@@@@@@@@....
    ..@@@.................................
    ..@@@.................................
    ...@@@................................
    ....@@@...............................
    .....@@@@.............................
    .......@@@@...........................
    .........@@@@@@@@@@@@@................
    ...........@@@@@@@@@@@................
    ......................................
    ......................................
    ......................................
    ......................................
    ......................................
    ......................................
    ......................................
    ......................................
    ......................................
    ......................................
    ......................................
    ......................................

    left-bearing: 4
    right-bearing: 4


0x41:
    ..................................
    ..................................
    ..................................
    ..................................
    ..................................
    ..................................
    ..................................
    ..............@@@@@@..............
    ..............@@@@@@..............
    .............@@@@@@@@.............
    .............@@@@@@@@.............
    ............@@@@@@@@@@............
    ............@@@@@@@@@@............
    ...........@@@@@..@@@@@...........
    ...........@@@@@..@@@@@...........
    ..........@@@@@....@@@@@..........
    ..........@@@@@....@@@@@..........
    .........@@@@@......@@@@@.........
    .........@@@@@......@@@@@.........
    .........@@@@@......@@@@@.........
    ........@@@@@........@@@@@........
    ........@@@@@........@@@@@........
    .......@@@@@..........@@@@@.......
    .......@@@@@..........@@@@@.......
    .......@@@@@..........@@@@@.......
    ......@@@@@............@@@@@......
    ......@@@@@............@@@@@......
    .....@@@@@.@@@@@@@@@@@@.@@@@@.....
    .....@@@@@@@@@@@@@@@@@@@@@@@@.....
    .....@@@@@@@@@@@@@@@@@@@@@@@@@....
    ....@@@@@@@@@@@@@@@@@@@@@@@@@@....
    ....@@@@@................@@@@@....
    ...@@@@@..................@@@@@...
    ...@@@@@..................@@@@@...
    ...@@@@@..................@@@@@...
    ..@@@@@....................@@@@@..
    ..@@@@@....................@@@@@..
    .@@@@@......................@@@@@.
    .@@@@@......................@@@@@.
    .@@@@@......................@@@@@.
    @@@@@........................@@@@@
    @@@@@........................@@@@@
    @@@@@........................@@@@@
    ..................................
    ..................................
    ..................................
    ..................................
    ..................................
    ..................................
    ..................................
    ..................................
    ..................................

    left-bearing: 1
    right-bearing: 1


0x42:
    ..............................
    ..............................
    ..............................
    ..............................
    ..............................
    ..............................
    ..............................
    @@@@@@@@@@@@@@@@@@@.@.........
    @@@@@@@@@@@@@@@@@@@@@@@.......
    @@@@@@@@@@@@@@@@@@@@@@@@@.....
    @@@@.@@@@@@@@@@@@@@@@@@@@@....
    @@@@@................@@@@@@...
    @@@@@..................@@@@@..
    @@@@@..................@@@@@..
    @@@@@...................@@@@@.
    @@@@@...................@@@@@.
    @@@@@...................@@@@@.
    @@@@@...................@@@@@.
    @@@@@...................@@@@@.
    @@@@@...................@@@@@.
    @@@@@..................@@@@@..
    @@@@@..................@@@@@..
    @@@@@................@@@@@@...
    @@@@.@@@@@@@@@@@@@@@@@@@@.....
    @@@@@@@@@@@@@@@@@@@@@@@.......
    @@@@@@@@@@@@@@@@@@@@@@@@@.....
    @@@@.@@@@@@@@@@@@@@@@@@@@@@...
    @@@@@.................@@@@@@..
    @@@@@...................@@@@@.
    @@@@@...................@@@@@.
    @@@@@....................@@@@@
    @@@@@....................@@@@@
    @@@@@....................@@@@@
    @@@@@....................@@@@@
    @@@@@....................@@@@@
    @@@@@....................@@@@@
    @@@@@...................@@@@@.
    @@@@@...................@@@@@.
    @@@@@.................@@@@@@..
    @@@@.@@@@@@@@@@@@@@@@@@@@@@...
    @@@@@@@@@@@@@@@@@@@@@@@@@@....
    @@@@@@@@@@@@@@@@@@@@@@@@......
    @@@@@@@@@@@@@@@@@@@@.@........
    ..............................
    ..............................
    ..............................
    ..............................
    ..............................
    ..............................
    ..............................
    ..............................
    ..............................

    left-bearing: 5
    right-bearing: 3


0x43:
    ..................................
    ..................................
    ..................................
    ..................................
    ..................................
    ..................................
    ..................................
    ............@.@@@@@@@.@...........
    ..........@@@@@@@@@@@@@@@.........
    ........@@@@@@@@@@@@@@@@@@@.......
    ......@@@@@@@@@@@@@@@@@@@@@@@.....
    .....@@@@@@@@.........@@@@@@@@....
    ....@@@@@@@.............@@@@@@@...
    ...@@@@@@.................@@@@@@..
    ..@@@@@@...................@@@@@@.
    ..@@@@@.....................@@@@@.
    .@@@@@@......................@@@@@
    .@@@@@.......................@@@@@
    @@@@@@............................
    @@@@@.............................
    @@@@@.............................
    @@@@@.............................
    @@@@@.............................
    @@@@@.............................
    @@@@@.............................
    @@@@@.............................
    @@@@@.............................
    @@@@@.............................
    @@@@@.............................
    @@@@@.............................
    @@@@@.............................
    @@@@@@............................
    .@@@@@.......................@@@@@
    .@@@@@@......................@@@@@
    ..@@@@@.....................@@@@@.
    ..@@@@@@...................@@@@@@.
    ...@@@@@@.................@@@@@@..
    ....@@@@@@@.............@@@@@@@...
    .....@@@@@@@@.........@@@@@@@@....
    ......@@@@@@@@@@@@@@@@@@@@@@@.....
    ........@@@@@@@@@@@@@@@@@@@.......
    ..........@@@@@@@@@@@@@@@.........
    ............@.@@@@@@@.@...........
    ..................................
    ..................................
    ..................................
    ..................................
    ..................................
    ..................................
    ..................................
    ..................................
    ..................................

    left-bearing: 3
    right-bearing: 3


0x44:
    .................................
    .................................
    .................................
    .................................
    .................................
    .................................
    .................................
    @@@@@@@@@@@@@@@@@@@.@............
    @@@@@@@@@@@@@@@@@@@@@@@..........
    @@@@@@@@@@@@@@@@@@@@@@@@@........
    @@@@.@@@@@@@@@@@@@@@@@@@@@@......
    @@@@@...............@@@@@@@@.....
    @@@@@.................@@@@@@@....
    @@@@@...................@@@@@@...
    @@@@@....................@@@@@@..
    @@@@@......................@@@@..
    @@@@@.....................@@@@@@.
    @@@@@.......................@@@@.
    @@@@@......................@@@@@@
    @@@@@.......................@@@@@
    @@@@@.......................@@@@@
    @@@@@.......................@@@@@
    @@@@@.......................@@@@@
    @@@@@.......................@@@@@
    @@@@@.......................@@@@@
    @@@@@.......................@@@@@
    @@@@@.......................@@@@@
    @@@@@.......................@@@@@
    @@@@@.......................@@@@@
    @@@@@.......................@@@@@
    @@@@@.......................@@@@@
    @@@@@......................@@@@@@
    @@@@@.......................@@@@.
    @@@@@.....................@@@@@@.
    @@@@@......................@@@@..
    @@@@@....................@@@@@@..
    @@@@@...................@@@@@@...
    @@@@@.................@@@@@@@....
    @@@@@...............@@@@@@@@.....
    @@@@.@@@@@@@@@@@@@@@@@@@@@@......
    @@@@@@@@@@@@@@@@@@@@@@@@@........
    @@@@@@@@@@@@@@@@@@@@@@@..........
    @@@@@@@@@@@@@@@@@@@.@............
    .................................
    .................................
    .................................
    .................................
    .................................
    .................................
    .................................
    .................................
    .................................

    left-bearing: 5
    right-bearing: 3


0x45:
    ............................
    ............................
    ............................
    ............................
    ............................
    ............................
    ............................
    @@@@@@@@@@@@@@@@@@@@@@@@@@@@
    @@@@@@@@@@@@@@@@@@@@@@@@@@@@
    @@@@@@@@@@@@@@@@@@@@@@@@@@@@
    @@@@.@@@@@@@@@@@@@@@@@@@@@@@
    @@@@@.......................
    @@@@@.......................
    @@@@@.......................
    @@@@@.......................
    @@@@@.......................
    @@@@@.......................
    @@@@@.......................
    @@@@@.......................
    @@@@@.......................
    @@@@@.......................
    @@@@@.......................
    @@@@@.......................
    @@@@.@@@@@@@@@@@@@@@@@@@@...
    @@@@@@@@@@@@@@@@@@@@@@@@@...
    @@@@@@@@@@@@@@@@@@@@@@@@@...
    @@@@.@@@@@@@@@@@@@@@@@@@@...
    @@@@@.......................
    @@@@@.......................
    @@@@@.......................
    @@@@@.......................
    @@@@@.......................
    @@@@@.......................
    @@@@@.......................
    @@@@@.......................
    @@@@@.......................
    @@@@@.......................
    @@@@@.......................
    @@@@@.......................
    @@@@.@@@@@@@@@@@@@@@@@@@@@@@
    @@@@@@@@@@@@@@@@@@@@@@@@@@@@
    @@@@@@@@@@@@@@@@@@@@@@@@@@@@
    @@@@@@@@@@@@@@@@@@@@@@@@@@@@
    ............................
    ............................
    ............................
    ............................
    ............................
    ............................
    ............................
    ............................
    ............................

    left-bearing: 5
    right-bearing: 2


0x46:
    ...........................
    ...........................
    ...........................
    ...........................
    ...........................
    ...........................
    ...........................
    @@@@@@@@@@@@@@@@@@@@@@@@@@@
    @@@@@@@@@@@@@@@@@@@@@@@@@@@
    @@@@@@@@@@@@@@@@@@@@@@@@@@@
    @@@@.@@@@@@@@@@@@@@@@@@@@@@
    @@@@@......................
    @@@@@......................
    @@@@@......................
    @@@@@......................
    @@@@@......................
    @@@@@......................
    @@@@@......................
    @@@@@......................
    @@@@@......................
    @@@@@......................
    @@@@@......................
    @@@@@......................
    @@@@.@@@@@@@@@@@@@@@@@@@...
    @@@@@@@@@@@@@@@@@@@@@@@@...
    @@@@@@@@@@@@@@@@@@@@@@@@...
    @@@@.@@@@@@@@@@@@@@@@@@@...
    @@@@@......................
    @@@@@......................
    @@@@@......................
    @@@@@......................
    @@@@@......................
    @@@@@......................
    @@@@@......................
    @@@@@......................
    @@@@@......................
    @@@@@......................
    @@@@@......................
    @@@@@......................
    @@@@@......................
    @@@@@......................
    @@@@@......................
    @@@@@......................
    ...........................
    ...........................
    ...........................
    ...........................
    ...........................
    ...........................
    ...........................
    ...........................
    ...........................

    left-bearing: 5
    right-bearing: 2


0x47:
    ...................................
    ...................................
    ...................................
    ...................................
    ...................................
    ...................................
    ...................................
    ............@.@@@@@@@.@............
    ..........@@@@@@@@@@@@@@@..........
    ........@@@@@@@@@@@@@@@@@@@........
    ......@@@@@@@@@@@@@@@@@@@@@@@......
    .....@@@@@@@@..........@@@@@@@.....
    ....@@@@@@@..............@@@@@@....
    ...@@@@@@..................@@@@@...
    ..@@@@@@....................@@@@@..
    ..@@@@@.....................@@@@@..
    .@@@@@@......................@@@@@.
    .@@@@@.......................@@@@@.
    @@@@@@.............................
    @@@@@..............................
    @@@@@..............................
    @@@@@..............................
    @@@@@..............................
    @@@@@..............................
    @@@@@..............................
    @@@@@..............................
    @@@@@...............@@@@@@@@@@@@@@@
    @@@@@...............@@@@@@@@@@@@@@@
    @@@@@...............@@@@@@@@@@@@@@@
    @@@@@...............@@@@@@@@@@.@@@@
    @@@@@.........................@@@@@
    @@@@@@........................@@@@@
    .@@@@@........................@@@@@
    .@@@@@@.......................@@@@@
    ..@@@@@......................@@@@@@
    ..@@@@@@....................@@@@@@@
    ...@@@@@@..................@@@@.@@@
    ....@@@@@@@..............@@@@@.@@@@
    .....@@@@@@@@..........@@@@@@.@@@@@
    ......@@@@@@@@@@@@@@@@@@@@@@..@@@@@
    ........@@@@@@@@@@@@@@@@@@....@@@@@
    ..........@@@@@@@@@@@@@@......@@@@@
    ............@.@@@@@@.@........@@@@@
    ...................................
    ...................................
    ...................................
    ...................................
    ...................................
    ...................................
    ...................................
    ...................................
    ...................................

    left-bearing: 3
    right-bearing: 3


0x48:
    ...............................
    ...............................
    ...............................
    ...............................
    ...............................
    ...............................
    ...............................
    @@@@@.....................@@@@@
    @@@@@.....................@@@@@
    @@@@@.....................@@@@@
    @@@@@.....................@@@@@
    @@@@@.....................@@@@@
    @@@@@.....................@@@@@
    @@@@@.....................@@@@@
    @@@@@.....................@@@@@
    @@@@@.....................@@@@@
    @@@@@.....................@@@@@
    @@@@@.....................@@@@@
    @@@@@.....................@@@@@
    @@@@@.....................@@@@@
    @@@@@.....................@@@@@
    @@@@@.....................@@@@@
    @@@@.@@@@@@@@@@@@@@@@@@@@@.@@@@
    @@@@@@@@@@@@@@@@@@@@@@@@@@@@@@@
    @@@@@@@@@@@@@@@@@@@@@@@@@@@@@@@
    @@@@.@@@@@@@@@@@@@@@@@@@@@.@@@@
    @@@@@.....................@@@@@
    @@@@@.....................@@@@@
    @@@@@.....................@@@@@
    @@@@@.....................@@@@@
    @@@@@.....................@@@@@
    @@@@@.....................@@@@@
    @@@@@.....................@@@@@
    @@@@@.....................@@@@@
    @@@@@.....................@@@@@
    @@@@@.....................@@@@@
    @@@@@.....................@@@@@
    @@@@@.....................@@@@@
    @@@@@.....................@@@@@
    @@@@@.....................@@@@@
    @@@@@.....................@@@@@
    @@@@@.....................@@@@@
    @@@@@.....................@@@@@
    ...............................
    ...............................
    ...............................
    ...............................
    ...............................
    ...............................
    ...............................
    ...............................
    ...............................

    left-bearing: 5
    right-bearing: 5


0x49:
    .....
    .....
    .....
    .....
    .....
    .....
    .....
    @@@@@
    @@@@@
    @@@@@
    @@@@@
    @@@@@
    @@@@@
    @@@@@
    @@@@@
    @@@@@
    @@@@@
    @@@@@
    @@@@@
    @@@@@
    @@@@@
    @@@@@
    @@@@@
    @@@@@
    @@@@@
    @@@@@
    @@@@@
    @@@@@
    @@@@@
    @@@@@
    @@@@@
    @@@@@
    @@@@@
    @@@@@
    @@@@@
    @@@@@
    @@@@@
    @@@@@
    @@@@@
    @@@@@
    @@@@@
    @@@@@
    @@@@@
    .....
    .....
    .....
    .....
    .....
    .....
    .....
    .....
    .....

    left-bearing: 5
    right-bearing: 5


0x4a:
    .......................
    .......................
    .......................
    .......................
    .......................
    .......................
    .......................
    ..................@@@@@
    ..................@@@@@
    ..................@@@@@
    ..................@@@@@
    ..................@@@@@
    ..................@@@@@
    ..................@@@@@
    ..................@@@@@
    ..................@@@@@
    ..................@@@@@
    ..................@@@@@
    ..................@@@@@
    ..................@@@@@
    ..................@@@@@
    ..................@@@@@
    ..................@@@@@
    ..................@@@@@
    ..................@@@@@
    ..................@@@@@
    ..................@@@@@
    ..................@@@@@
    ..................@@@@@
    ..................@@@@@
    ..................@@@@@
    ..................@@@@@
    @@@@@.............@@@@@
    @@@@@.............@@@@@
    @@@@@.............@@@@@
    @@@@@.............@@@@@
    .@@@@@...........@@@@@.
    .@@@@@@.........@@@@@@.
    ..@@@@@.@.....@.@@@@@..
    ...@@@@@@@@@@@@@@@@@...
    ....@@@@@@@@@@@@@@@....
    ......@@@@@@@@@@@......
    ........@.@@@.@........
    .......................
    .......................
    .......................
    .......................
    .......................
    .......................
    .......................
    .......................
    .......................

    left-bearing: 2
    right-bearing: 5


0x4b:
    ................................
    ................................
    ................................
    ................................
    ................................
    ................................
    ................................
    @@@@@....................@@@@@@.
    @@@@@...................@@@@@@..
    @@@@@..................@@@@@@...
    @@@@@.................@@@@@@....
    @@@@@................@@@@@@.....
    @@@@@...............@@@@@@......
    @@@@@..............@@@@@@.......
    @@@@@.............@@@@@@........
    @@@@@............@@@@@@.........
    @@@@@...........@@@@@@..........
    @@@@@..........@@@@@@...........
    @@@@@.........@@@@@@............
    @@@@@........@@@@@@.............
    @@@@@.......@@@@@@..............
    @@@@@......@@@@@@...............
    @@@@@.....@@@@@@................
    @@@@@....@@@@@@.................
    @@@@@...@@@@@@..................
    @@@@@..@@@@@@@@.................
    @@@@@.@@@@@@@@@@................
    @@@@.@@@@@.@@@@@@...............
    @@@@@@@@@...@@@@@@..............
    @@@@@@@@.....@@@@@@.............
    @@@@@@@.......@@@@@@............
    @@@@@@.........@@@@@@...........
    @@@@@...........@@@@@@..........
    @@@@@............@@@@@@.........
    @@@@@.............@@@@@@........
    @@@@@..............@@@@@@.......
    @@@@@...............@@@@@@......
    @@@@@................@@@@@@.....
    @@@@@.................@@@@@@....
    @@@@@..................@@@@@@...
    @@@@@...................@@@@@@..
    @@@@@....................@@@@@@.
    @@@@@.....................@@@@@@
    ................................
    ................................
    ................................
    ................................
    ................................
    ................................
    ................................
    ................................
    ................................

    left-bearing: 5
    right-bearing: 1


0x4c:
    .........................
    .........................
    .........................
    .........................
    .........................
    .........................
    .........................
    @@@@@....................
    @@@@@....................
    @@@@@....................
    @@@@@....................
    @@@@@....................
    @@@@@....................
    @@@@@....................
    @@@@@....................
    @@@@@....................
    @@@@@....................
    @@@@@....................
    @@@@@....................
    @@@@@....................
    @@@@@....................
    @@@@@....................
    @@@@@....................
    @@@@@....................
    @@@@@....................
    @@@@@....................
    @@@@@....................
    @@@@@....................
    @@@@@....................
    @@@@@....................
    @@@@@....................
    @@@@@....................
    @@@@@....................
    @@@@@....................
    @@@@@....................
    @@@@@....................
    @@@@@....................
    @@@@@....................
    @@@@@....................
    @@@@.@@@@@@@@@@@@@@@@@@@@
    @@@@@@@@@@@@@@@@@@@@@@@@@
    @@@@@@@@@@@@@@@@@@@@@@@@@
    @@@@@@@@@@@@@@@@@@@@@@@@@
    .........................
    .........................
    .........................
    .........................
    .........................
    .........................
    .........................
    .........................
    .........................

    left-bearing: 5
    right-bearing: 2


0x4d:
    .......................................
    .......................................
    .......................................
    .......................................
    .......................................
    .......................................
    .......................................
    @@@@@.............................@@@@@
    @@@@@.............................@@@@@
    @@@@@@...........................@@@@@@
    @@@@@@...........................@@@@@@
    @@@@@@@.........................@@@@@@@
    @@@@@@@.........................@@@@@@@
    @@@@@@@@.......................@@@@@@@@
    @@@@@@@@.......................@@@@@@@@
    @@@@@@@@@.....................@@@@@@@@@
    @@@@@@@@@.....................@@@@@@@@@
    @@@@.@@@@@...................@@@@@.@@@@
    @@@@.@@@@@...................@@@@@.@@@@
    @@@@@.@@@@@.................@@@@@.@@@@@
    @@@@@.@@@@@.................@@@@@.@@@@@
    @@@@@..@@@@@...............@@@@@..@@@@@
    @@@@@..@@@@@...............@@@@@..@@@@@
    @@@@@...@@@@@.............@@@@@...@@@@@
    @@@@@...@@@@@.............@@@@@...@@@@@
    @@@@@....@@@@@...........@@@@@....@@@@@
    @@@@@....@@@@@...........@@@@@....@@@@@
    @@@@@.....@@@@@.........@@@@@.....@@@@@
    @@@@@.....@@@@@.........@@@@@.....@@@@@
    @@@@@......@@@@@.......@@@@@......@@@@@
    @@@@@......@@@@@.......@@@@@......@@@@@
    @@@@@.......@@@@@.....@@@@@.......@@@@@
    @@@@@.......@@@@@.....@@@@@.......@@@@@
    @@@@@........@@@@@...@@@@@........@@@@@
    @@@@@........@@@@@...@@@@@........@@@@@
    @@@@@.........@@@@@.@@@@@.........@@@@@
    @@@@@.........@@@@@.@@@@@.........@@@@@
    @@@@@..........@@@@@@@@@..........@@@@@
    @@@@@..........@@@@@@@@@..........@@@@@
    @@@@@...........@@@@@@@...........@@@@@
    @@@@@...........@@@@@@@...........@@@@@
    @@@@@............@@@@@............@@@@@
    @@@@@............@@@@@............@@@@@
    .......................................
    .......................................
    .......................................
    .......................................
    .......................................
    .......................................
    .......................................
    .......................................
    .......................................

    left-bearing: 5
    right-bearing: 5


0x4e:
    ................................
    ................................
    ................................
    ................................
    ................................
    ................................
    ................................
    @@@@.......................@@@@@
    @@@@@......................@@@@@
    @@@@@@.....................@@@@@
    @@@@@@@....................@@@@@
    @@@@@@@@...................@@@@@
    @@@@@@@@...................@@@@@
    @@@@@@@@@..................@@@@@
    @@@@.@@@@@.................@@@@@
    @@@@.@@@@@@................@@@@@
    @@@@@.@@@@@@...............@@@@@
    @@@@@..@@@@@@..............@@@@@
    @@@@@...@@@@@..............@@@@@
    @@@@@...@@@@@@.............@@@@@
    @@@@@....@@@@@@............@@@@@
    @@@@@.....@@@@@@...........@@@@@
    @@@@@......@@@@@@..........@@@@@
    @@@@@.......@@@@@@.........@@@@@
    @@@@@........@@@@@.........@@@@@
    @@@@@........@@@@@@........@@@@@
    @@@@@.........@@@@@@.......@@@@@
    @@@@@..........@@@@@@......@@@@@
    @@@@@...........@@@@@@.....@@@@@
    @@@@@............@@@@@@....@@@@@
    @@@@@.............@@@@@....@@@@@
    @@@@@.............@@@@@@...@@@@@
    @@@@@..............@@@@@@..@@@@@
    @@@@@...............@@@@@@.@@@@@
    @@@@@................@@@@@.@@@@@
    @@@@@.................@@@@@.@@@@
    @@@@@..................@@@@.@@@@
    @@@@@...................@@@@@@@@
    @@@@@....................@@@@@@@
    @@@@@.....................@@@@@@
    @@@@@......................@@@@@
    @@@@@.......................@@@@
    @@@@@........................@@@
    ................................
    ................................
    ................................
    ................................
    ................................
    ................................
    ................................
    ................................
    ................................

    left-bearing: 5
    right-bearing: 5


0x4f:
    ....................................
    ....................................
    ....................................
    ....................................
    ....................................
    ....................................
    ....................................
    ............@.@@@@@@@@.@............
    ..........@@@@@@@@@@@@@@@@..........
    ........@@@@@@@@@@@@@@@@@@@@........
    ......@@@@@@@@@@@@@@@@@@@@@@@@......
    .....@@@@@@@@..........@@@@@@@@.....
    ....@@@@@@@..............@@@@@@@....
    ...@@@@@@..................@@@@@@...
    ..@@@@@@....................@@@@@@..
    ..@@@@........................@@@@..
    .@@@@@@......................@@@@@@.
    .@@@@..........................@@@@.
    @@@@@@........................@@@@@@
    @@@@@..........................@@@@@
    @@@@@..........................@@@@@
    @@@@@..........................@@@@@
    @@@@@..........................@@@@@
    @@@@@..........................@@@@@
    @@@@@..........................@@@@@
    @@@@@..........................@@@@@
    @@@@@..........................@@@@@
    @@@@@..........................@@@@@
    @@@@@..........................@@@@@
    @@@@@..........................@@@@@
    @@@@@..........................@@@@@
    @@@@@@........................@@@@@@
    .@@@@..........................@@@@.
    .@@@@@@......................@@@@@@.
    ..@@@@........................@@@@..
    ..@@@@@@....................@@@@@@..
    ...@@@@@@..................@@@@@@...
    ....@@@@@@@..............@@@@@@@....
    .....@@@@@@@@..........@@@@@@@@.....
    ......@@@@@@@@@@@@@@@@@@@@@@@@......
    ........@@@@@@@@@@@@@@@@@@@@........
    ..........@@@@@@@@@@@@@@@@..........
    ............@.@@@@@@@@.@............
    ....................................
    ....................................
    ....................................
    ....................................
    ....................................
    ....................................
    ....................................
    ....................................
    ....................................

    left-bearing: 3
    right-bearing: 3


0x50:
    ............................
    ............................
    ............................
    ............................
    ............................
    ............................
    ............................
    @@@@@@@@@@@@@@@@@@.@........
    @@@@@@@@@@@@@@@@@@@@@@......
    @@@@@@@@@@@@@@@@@@@@@@@@....
    @@@@.@@@@@@@@@@@@@@@@@@@@...
    @@@@@...............@@@@@@..
    @@@@@.................@@@@@.
    @@@@@.................@@@@@.
    @@@@@..................@@@@@
    @@@@@..................@@@@@
    @@@@@..................@@@@@
    @@@@@..................@@@@@
    @@@@@..................@@@@@
    @@@@@..................@@@@@
    @@@@@..................@@@@@
    @@@@@.................@@@@@.
    @@@@@.................@@@@@.
    @@@@@...............@@@@@@..
    @@@@.@@@@@@@@@@@@@@@@@@@@...
    @@@@@@@@@@@@@@@@@@@@@@@@....
    @@@@@@@@@@@@@@@@@@@@@@......
    @@@@.@@@@@@@@@@@@@.@........
    @@@@@.......................
    @@@@@.......................
    @@@@@.......................
    @@@@@.......................
    @@@@@.......................
    @@@@@.......................
    @@@@@.......................
    @@@@@.......................
    @@@@@.......................
    @@@@@.......................
    @@@@@.......................
    @@@@@.......................
    @@@@@.......................
    @@@@@.......................
    @@@@@.......................
    ............................
    ............................
    ............................
    ............................
    ............................
    ............................
    ............................
    ............................
    ............................

    left-bearing: 5
    right-bearing: 3


0x51:
    ....................................
    ....................................
    ....................................
    ....................................
    ....................................
    ....................................
    ....................................
    ............@.@@@@@@@@.@............
    ..........@@@@@@@@@@@@@@@@..........
    ........@@@@@@@@@@@@@@@@@@@@........
    ......@@@@@@@@@@@@@@@@@@@@@@@@......
    .....@@@@@@@@..........@@@@@@@@.....
    ....@@@@@@@..............@@@@@@@....
    ...@@@@@@..................@@@@@@...
    ..@@@@@@....................@@@@@@..
    ..@@@@........................@@@@..
    .@@@@@@......................@@@@@@.
    .@@@@..........................@@@@.
    @@@@@@........................@@@@@@
    @@@@@..........................@@@@@
    @@@@@..........................@@@@@
    @@@@@..........................@@@@@
    @@@@@..........................@@@@@
    @@@@@..........................@@@@@
    @@@@@..........................@@@@@
    @@@@@..........................@@@@@
    @@@@@..........................@@@@@
    @@@@@..........................@@@@@
    @@@@@..........................@@@@@
    @@@@@..........................@@@@@
    @@@@@..........................@@@@@
    @@@@@@...............@@.......@@@@@@
    .@@@@...............@@@@.......@@@@.
    .@@@@@@............@@@@@@....@@@@@@.
    ..@@@@..............@@@@@@....@@@@..
    ..@@@@@@.............@@@@@@.@@@@@@..
    ...@@@@@@.............@@@@@.@@@@@...
    ....@@@@@@@............@@@@@@@@@....
    .....@@@@@@@@...........@@@@@@......
    ......@@@@@@@@@@@@@@@@@@@@@@@@@@....
    ........@@@@@@@@@@@@@@@@@@@.@@@@@...
    ..........@@@@@@@@@@@@@@@@..@@@@@@..
    ............@.@@@@@@@@.@.....@@@@@@.
    ..............................@@@@@.
    ...............................@@...
    ....................................
    ....................................
    ....................................
    ....................................
    ....................................
    ....................................
    ....................................

    left-bearing: 3
    right-bearing: 3


0x52:
    ..............................
    ..............................
    ..............................
    ..............................
    ..............................
    ..............................
    ..............................
    @@@@@@@@@@@@@@@@@@@@.@........
    @@@@@@@@@@@@@@@@@@@@@@@@......
    @@@@@@@@@@@@@@@@@@@@@@@@@@....
    @@@@.@@@@@@@@@@@@@@@@@@@@@@...
    @@@@@................@@@@@@@..
    @@@@@..................@@@@@..
    @@@@@...................@@@@@.
    @@@@@...................@@@@@.
    @@@@@...................@@@@@.
    @@@@@...................@@@@@.
    @@@@@...................@@@@@.
    @@@@@...................@@@@@.
    @@@@@...................@@@@@.
    @@@@@...................@@@@..
    @@@@@..................@@@@@..
    @@@@@................@@@@@@...
    @@@@.@@@@@@@@@@@@@@@@@@@@@....
    @@@@@@@@@@@@@@@@@@@@@@@.......
    @@@@@@@@@@@@@@@@@@@@@@@@@.....
    @@@@.@@@@@@@@@@@@@@@@@@@@@@...
    @@@@@................@@@@@@@..
    @@@@@..................@@@@@..
    @@@@@..................@@@@@@.
    @@@@@...................@@@@@.
    @@@@@...................@@@@@.
    @@@@@...................@@@@@.
    @@@@@...................@@@@@.
    @@@@@...................@@@@@.
    @@@@@...................@@@@@.
    @@@@@...................@@@@@.
    @@@@@...................@@@@@.
    @@@@@...................@@@@@.
    @@@@@...................@@@@@.
    @@@@@...................@@@@@.
    @@@@@...................@@@@@.
    @@@@@....................@@@@@
    ..............................
    ..............................
    ..............................
    ..............................
    ..............................
    ..............................
    ..............................
    ..............................
    ..............................

    left-bearing: 5
    right-bearing: 2


0x53:
    .............................
    .............................
    .............................
    .............................
    .............................
    .............................
    .............................
    ..........@.@@@@@.@..........
    .......@@@@@@@@@@@@@@@.......
    .....@@@@@@@@@@@@@@@@@@@.....
    ....@@@@@@@@@@@@@@@@@@@@@....
    ...@@@@@@@.........@@@@@@@...
    ..@@@@@@.............@@@@@@..
    ..@@@@@...............@@@@@..
    .@@@@@.................@@@@@.
    .@@@@@.................@@@@@.
    .@@@@@..................@@@@@
    .@@@@@..................@@@@@
    .@@@@@.......................
    ..@@@@@......................
    ..@@@@@@@....................
    ...@@@@@@@@..................
    ....@@@@@@@@@@...............
    ......@@@@@@@@@@@............
    ........@@@@@@@@@@@@.........
    ...........@@@@@@@@@@@.......
    ..............@@@@@@@@@@.....
    .................@@@@@@@@@...
    ....................@@@@@@@..
    ......................@@@@@@.
    .......................@@@@@.
    ........................@@@@@
    @@@@@...................@@@@@
    @@@@@...................@@@@@
    @@@@@@..................@@@@@
    .@@@@@..................@@@@@
    .@@@@@@................@@@@@.
    ..@@@@@@..............@@@@@@.
    ...@@@@@@@..........@@@@@@@..
    ....@@@@@@@@@@@@@@@@@@@@@@...
    .....@@@@@@@@@@@@@@@@@@@@....
    .......@@@@@@@@@@@@@@@@......
    ..........@.@@@@@@.@.........
    .............................
    .............................
    .............................
    .............................
    .............................
    .............................
    .............................
    .............................
    .............................

    left-bearing: 2
    right-bearing: 3


0x54:
    ...............................
    ...............................
    ...............................
    ...............................
    ...............................
    ...............................
    ...............................
    @@@@@@@@@@@@@@@@@@@@@@@@@@@@@@@
    @@@@@@@@@@@@@@@@@@@@@@@@@@@@@@@
    @@@@@@@@@@@@@@@@@@@@@@@@@@@@@@@
    @@@@@@@@@@@@@.@@@.@@@@@@@@@@@@@
    .............@@@@@.............
    .............@@@@@.............
    .............@@@@@.............
    .............@@@@@.............
    .............@@@@@.............
    .............@@@@@.............
    .............@@@@@.............
    .............@@@@@.............
    .............@@@@@.............
    .............@@@@@.............
    .............@@@@@.............
    .............@@@@@.............
    .............@@@@@.............
    .............@@@@@.............
    .............@@@@@.............
    .............@@@@@.............
    .............@@@@@.............
    .............@@@@@.............
    .............@@@@@.............
    .............@@@@@.............
    .............@@@@@.............
    .............@@@@@.............
    .............@@@@@.............
    .............@@@@@.............
    .............@@@@@.............
    .............@@@@@.............
    .............@@@@@.............
    .............@@@@@.............
    .............@@@@@.............
    .............@@@@@.............
    .............@@@@@.............
    .............@@@@@.............
    ...............................
    ...............................
    ...............................
    ...............................
    ...............................
    ...............................
    ...............................
    ...............................
    ...............................

    left-bearing: 2
    right-bearing: 2


0x55:
    ................................
    ................................
    ................................
    ................................
    ................................
    ................................
    ................................
    @@@@@......................@@@@@
    @@@@@......................@@@@@
    @@@@@......................@@@@@
    @@@@@......................@@@@@
    @@@@@......................@@@@@
    @@@@@......................@@@@@
    @@@@@......................@@@@@
    @@@@@......................@@@@@
    @@@@@......................@@@@@
    @@@@@......................@@@@@
    @@@@@......................@@@@@
    @@@@@......................@@@@@
    @@@@@......................@@@@@
    @@@@@......................@@@@@
    @@@@@......................@@@@@
    @@@@@......................@@@@@
    @@@@@......................@@@@@
    @@@@@......................@@@@@
    @@@@@......................@@@@@
    @@@@@......................@@@@@
    @@@@@......................@@@@@
    @@@@@......................@@@@@
    @@@@@......................@@@@@
    @@@@@......................@@@@@
    @@@@@......................@@@@@
    @@@@@......................@@@@@
    @@@@@......................@@@@@
    @@@@@@....................@@@@@@
    .@@@@@....................@@@@@.
    .@@@@@@..................@@@@@@.
    ..@@@@@@................@@@@@@..
    ...@@@@@@@............@@@@@@@...
    ....@@@@@@@@@@@@@@@@@@@@@@@@....
    .....@@@@@@@@@@@@@@@@@@@@@@.....
    .......@@@@@@@@@@@@@@@@@@.......
    .........@.@@@@@@@@@@.@.........
    ................................
    ................................
    ................................
    ................................
    ................................
    ................................
    ................................
    ................................
    ................................

    left-bearing: 4
    right-bearing: 4


0x56:
    ...................................
    ...................................
    ...................................
    ...................................
    ...................................
    ...................................
    ...................................
    @@@@@.........................@@@@@
    @@@@@.........................@@@@@
    .@@@@@.......................@@@@@.
    .@@@@@.......................@@@@@.
    .@@@@@.......................@@@@@.
    ..@@@@@.....................@@@@@..
    ..@@@@@.....................@@@@@..
    ...@@@@@...................@@@@@...
    ...@@@@@...................@@@@@...
    ....@@@@@.................@@@@@....
    ....@@@@@.................@@@@@....
    ....@@@@@.................@@@@@....
    .....@@@@@...............@@@@@.....
    .....@@@@@...............@@@@@.....
    ......@@@@@.............@@@@@......
    ......@@@@@.............@@@@@......
    .......@@@@@...........@@@@@.......
    .......@@@@@...........@@@@@.......
    .......@@@@@...........@@@@@.......
    ........@@@@@.........@@@@@........
    ........@@@@@.........@@@@@........
    .........@@@@@.......@@@@@.........
    .........@@@@@.......@@@@@.........
    ..........@@@@@.....@@@@@..........
    ..........@@@@@.....@@@@@..........
    ..........@@@@@.....@@@@@..........
    ...........@@@@@...@@@@@...........
    ...........@@@@@...@@@@@...........
    ............@@@@@.@@@@@............
    ............@@@@@.@@@@@............
    .............@@@@.@@@@.............
    .............@@@@@@@@@.............
    ..............@@@@@@@..............
    ..............@@@@@@@..............
    ...............@@@@@...............
    ...............@@@@@...............
    ...................................
    ...................................
    ...................................
    ...................................
    ...................................
    ...................................
    ...................................
    ...................................
    ...................................

    left-bearing: 1
    right-bearing: 1


0x57:
    ...................................................
    ...................................................
    ...................................................
    ...................................................
    ...................................................
    ...................................................
    ...................................................
    @@@@@.........................................@@@@@
    @@@@@.........................................@@@@@
    @@@@@..................@@@@@..................@@@@@
    .@@@@@.................@@@@@.................@@@@@.
    .@@@@@.................@@@@@.................@@@@@.
    .@@@@@................@@@@@@@................@@@@@.
    ..@@@@@...............@@@@@@@...............@@@@@..
    ..@@@@@...............@@@@@@@...............@@@@@..
    ..@@@@@..............@@@@@@@@@..............@@@@@..
    ...@@@@@.............@@@@@@@@@.............@@@@@...
    ...@@@@@.............@@@@.@@@@.............@@@@@...
    ...@@@@@............@@@@@.@@@@@............@@@@....
    ....@@@@@...........@@@@@.@@@@@...........@@@@@....
    ....@@@@@...........@@@@@.@@@@@...........@@@@@....
    ....@@@@@..........@@@@@...@@@@@..........@@@@@....
    .....@@@@@.........@@@@@...@@@@@.........@@@@@.....
    .....@@@@@.........@@@@@...@@@@@.........@@@@@.....
    .....@@@@@........@@@@@.....@@@@@........@@@@@.....
    ......@@@@@.......@@@@@.....@@@@@.......@@@@@......
    ......@@@@@.......@@@@@.....@@@@@.......@@@@@......
    ......@@@@@......@@@@@.......@@@@@......@@@@@......
    .......@@@@@.....@@@@@.......@@@@@.....@@@@@.......
    .......@@@@@.....@@@@@.......@@@@@.....@@@@@.......
    .......@@@@@....@@@@@.........@@@@@....@@@@@.......
    ........@@@@@...@@@@@.........@@@@@...@@@@@........
    ........@@@@@...@@@@@.........@@@@@...@@@@@........
    ........@@@@@...@@@@...........@@@@...@@@@@........
    .........@@@@@.@@@@@...........@@@@@.@@@@@.........
    .........@@@@@.@@@@@...........@@@@@.@@@@@.........
    .........@@@@@.@@@@.............@@@@.@@@@@.........
    ..........@@@@.@@@@.............@@@@.@@@@..........
    ..........@@@@@@@@@.............@@@@@@@@@..........
    ..........@@@@@@@@...............@@@@@@@@..........
    ...........@@@@@@@...............@@@@@@@...........
    ...........@@@@@@.................@@@@@@...........
    ...........@@@@@@.................@@@@@@...........
    ...................................................
    ...................................................
    ...................................................
    ...................................................
    ...................................................
    ...................................................
    ...................................................
    ...................................................
    ...................................................

    left-bearing: 1
    right-bearing: 1


0x58:
    ....................................
    ....................................
    ....................................
    ....................................
    ....................................
    ....................................
    ....................................
    @@@@@..........................@@@@@
    .@@@@@........................@@@@@.
    ..@@@@@......................@@@@@..
    ...@@@@@....................@@@@@...
    ....@@@@@..................@@@@@....
    ....@@@@@..................@@@@@....
    .....@@@@@................@@@@@.....
    ......@@@@@..............@@@@@......
    .......@@@@@............@@@@@.......
    ........@@@@@..........@@@@@........
    ........@@@@@..........@@@@@........
    .........@@@@@........@@@@@.........
    ..........@@@@@......@@@@@..........
    ...........@@@@@....@@@@@...........
    ............@@@@@..@@@@@............
    .............@@@@@@@@@@.............
    .............@@@@@@@@@@.............
    ..............@@@@@@@@..............
    ..............@@@@@@@@..............
    .............@@@@@@@@@@.............
    .............@@@@@@@@@@.............
    ............@@@@@..@@@@@............
    ...........@@@@@....@@@@@...........
    ..........@@@@@......@@@@@..........
    .........@@@@@........@@@@@.........
    ........@@@@@..........@@@@@........
    ........@@@@@..........@@@@@........
    .......@@@@@............@@@@@.......
    ......@@@@@..............@@@@@......
    .....@@@@@................@@@@@.....
    ....@@@@@..................@@@@@....
    ....@@@@@..................@@@@@....
    ...@@@@@....................@@@@@...
    ..@@@@@......................@@@@@..
    .@@@@@........................@@@@@.
    @@@@@..........................@@@@@
    ....................................
    ....................................
    ....................................
    ....................................
    ....................................
    ....................................
    ....................................
    ....................................
    ....................................

    left-bearing: 1
    right-bearing: 1


0x59:
    ...................................
    ...................................
    ...................................
    ...................................
    ...................................
    ...................................
    ...................................
    @@@@@.........................@@@@@
    .@@@@@.......................@@@@@.
    ..@@@@@.....................@@@@@..
    ..@@@@@.....................@@@@@..
    ...@@@@@...................@@@@@...
    ....@@@@@.................@@@@@....
    .....@@@@@...............@@@@@.....
    .....@@@@@...............@@@@@.....
    ......@@@@@.............@@@@@......
    .......@@@@@...........@@@@@.......
    ........@@@@@.........@@@@@........
    ........@@@@@.........@@@@@........
    .........@@@@@.......@@@@@.........
    ..........@@@@@.....@@@@@..........
    ..........@@@@@.....@@@@@..........
    ...........@@@@@...@@@@@...........
    ............@@@@@.@@@@@............
    ............@@@@@.@@@@@............
    .............@@@@@@@@@.............
    ..............@@@@@@@..............
    ..............@@@@@@@..............
    ...............@@@@@...............
    ...............@@@@@...............
    ...............@@@@@...............
    ...............@@@@@...............
    ...............@@@@@...............
    ...............@@@@@...............
    ...............@@@@@...............
    ...............@@@@@...............
    ...............@@@@@...............
    ...............@@@@@...............
    ...............@@@@@...............
    ...............@@@@@...............
    ...............@@@@@...............
    ...............@@@@@...............
    ...............@@@@@...............
    ...................................
    ...................................
    ...................................
    ...................................
    ...................................
    ...................................
    ...................................
    ...................................
    ...................................

    left-bearing: 1
    right-bearing: 1


0x5a:
    ...........................
    ...........................
    ...........................
    ...........................
    ...........................
    ...........................
    ...........................
    .@@@@@@@@@@@@@@@@@@@@@@@@@@
    .@@@@@@@@@@@@@@@@@@@@@@@@@@
    .@@@@@@@@@@@@@@@@@@@@@@@@@@
    .@@@@@@@@@@@@@@@@@@@@.@@@@@
    .....................@@@@@.
    ....................@@@@@..
    ...................@@@@@...
    ...................@@@@@...
    ..................@@@@@....
    .................@@@@@.....
    .................@@@@@.....
    ................@@@@@......
    ...............@@@@@.......
    ...............@@@@@.......
    ..............@@@@@........
    .............@@@@@.........
    ............@@@@@..........
    ............@@@@@..........
    ...........@@@@@...........
    ..........@@@@@............
    .........@@@@@.............
    .........@@@@@.............
    ........@@@@@..............
    .......@@@@@...............
    ......@@@@@................
    ......@@@@@................
    .....@@@@@.................
    ....@@@@@..................
    ...@@@@@...................
    ...@@@@@...................
    ..@@@@@....................
    .@@@@@.....................
    @@@@@.@@@@@@@@@@@@@@@@@@@@@
    @@@@@@@@@@@@@@@@@@@@@@@@@@@
    @@@@@@@@@@@@@@@@@@@@@@@@@@@
    @@@@@@@@@@@@@@@@@@@@@@@@@@@
    ...........................
    ...........................
    ...........................
    ...........................
    ...........................
    ...........................
    ...........................
    ...........................
    ...........................

    left-bearing: 2
    right-bearing: 2


0x5b:
    ............
    ............
    ............
    ............
    @@@@@@@@@@@@
    @@@@@@@@@@@@
    @@@.@@@@@@@@
    @@@@........
    @@@@........
    @@@@........
    @@@@........
    @@@@........
    @@@@........
    @@@@........
    @@@@........
    @@@@........
    @@@@........
    @@@@........
    @@@@........
    @@@@........
    @@@@........
    @@@@........
    @@@@........
    @@@@........
    @@@@........
    @@@@........
    @@@@........
    @@@@........
    @@@@........
    @@@@........
    @@@@........
    @@@@........
    @@@@........
    @@@@........
    @@@@........
    @@@@........
    @@@@........
    @@@@........
    @@@@........
    @@@@........
    @@@@........
    @@@@........
    @@@@........
    @@@@........
    @@@@........
    @@@@........
    @@@@........
    @@@.@@@@@@@@
    @@@@@@@@@@@@
    @@@@@@@@@@@@
    ............
    ............

    left-bearing: 4
    right-bearing: 2


0x5c:
    ................
    ................
    ................
    ................
    ................
    ................
    ................
    @@@.............
    @@@.............
    @@@.............
    .@@@............
    .@@@............
    ..@@@...........
    ..@@@...........
    ..@@@...........
    ...@@@..........
    ...@@@..........
    ....@@@.........
    ....@@@.........
    ....@@@.........
    .....@@@........
    .....@@@........
    ......@@@.......
    ......@@@.......
    ......@@@.......
    .......@@@......
    .......@@@......
    .......@@@......
    ........@@@.....
    ........@@@.....
    .........@@@....
    .........@@@....
    .........@@@....
    ..........@@@...
    ..........@@@...
    ...........@@@..
    ...........@@@..
    ...........@@@..
    ............@@@.
    ............@@@.
    .............@@@
    .............@@@
    .............@@@
    ................
    ................
    ................
    ................
    ................
    ................
    ................
    ................
    ................

    left-bearing: 1
    right-bearing: 1


0x5d:
    ............
    ............
    ............
    ............
    @@@@@@@@@@@@
    @@@@@@@@@@@@
    @@@@@@@@.@@@
    ........@@@@
    ........@@@@
    ........@@@@
    ........@@@@
    ........@@@@
    ........@@@@
    ........@@@@
    ........@@@@
    ........@@@@
    ........@@@@
    ........@@@@
    ........@@@@
    ........@@@@
    ........@@@@
    ........@@@@
    ........@@@@
    ........@@@@
    ........@@@@
    ........@@@@
    ........@@@@
    ........@@@@
    ........@@@@
    ........@@@@
    ........@@@@
    ........@@@@
    ........@@@@
    ........@@@@
    ........@@@@
    ........@@@@
    ........@@@@
    ........@@@@
    ........@@@@
    ........@@@@
    ........@@@@
    ........@@@@
    ........@@@@
    ........@@@@
    ........@@@@
    ........@@@@
    ........@@@@
    @@@@@@@@.@@@
    @@@@@@@@@@@@
    @@@@@@@@@@@@
    ............
    ............

    left-bearing: 2
    right-bearing: 4


0x5e:
    ....@@@@....
    ...@@@@@@...
    ..@@@..@@@..
    .@@@....@@@.
    @@@......@@@
    ............
    ............
    ............
    ............
    ............
    ............
    ............
    ............
    ............
    ............
    ............
    ............
    ............
    ............
    ............
    ............
    ............
    ............
    ............
    ............
    ............
    ............
    ............
    ............
    ............
    ............
    ............
    ............
    ............
    ............
    ............
    ............
    ............
    ............
    ............
    ............
    ............
    ............
    ............
    ............
    ............
    ............
    ............
    ............
    ............
    ............
    ............

    left-bearing: 10
    right-bearing: 10


0x5f:
    ..............................................
    ..............................................
    ..............................................
    ..............................................
    ..............................................
    ..............................................
    ..............................................
    ..............................................
    ..............................................
    ..............................................
    ..............................................
    ..............................................
    ..............................................
    ..............................................
    ..............................................
    ..............................................
    ..............................................
    ..............................................
    ..............................................
    ..............................................
    ..............................................
    ..............................................
    ..............................................
    ..............................................
    ..............................................
    ..............................................
    ..............................................
    ..............................................
    ..............................................
    ..............................................
    ..............................................
    ..............................................
    ..............................................
    ..............................................
    ..............................................
    ..............................................
    ..............................................
    ..............................................
    ..............................................
    ..............................................
    ..............................................
    ..............................................
    ..............................................
    ..............................................
    ..............................................
    ..............................................
    ..............................................
    ..............................................
    ..............................................
    @@@@@@@@@@@@@@@@@@@@@@@@@@@@@@@@@@@@@@@@@@@@@@
    @@@@@@@@@@@@@@@@@@@@@@@@@@@@@@@@@@@@@@@@@@@@@@
    @@@@@@@@@@@@@@@@@@@@@@@@@@@@@@@@@@@@@@@@@@@@@@

0x60:
    @@@@....
    .@@@@...
    ..@@@@..
    ...@@@@.
    ....@@@@
    ........
    ........
    ........
    ........
    ........
    ........
    ........
    ........
    ........
    ........
    ........
    ........
    ........
    ........
    ........
    ........
    ........
    ........
    ........
    ........
    ........
    ........
    ........
    ........
    ........
    ........
    ........
    ........
    ........
    ........
    ........
    ........
    ........
    ........
    ........
    ........
    ........
    ........
    ........
    ........
    ........
    ........
    ........
    ........
    ........
    ........
    ........

    left-bearing: 12
    right-bearing: 12


0x61:
    ......................
    ......................
    ......................
    ......................
    ......................
    ......................
    ......................
    ......................
    ......................
    ......................
    ......................
    ......................
    ......................
    ......................
    ......................
    ......................
    ......................
    ........@.@@@.@.......
    ......@@@@@@@@@@@.....
    ....@@@@@@@@@@@@@@@...
    ...@@@@@@@@@@@@@@@@@..
    ..@@@@@@......@@@@@@@.
    .@@@@@@.........@@@@@.
    .@@@@@..........@@@@@@
    .@@@@@...........@@@@@
    .................@@@@@
    .................@@@@@
    ..............@@@@@@@@
    ...........@@@@@@@@@@@
    ........@@@@@@@@@.@@@@
    ......@@@@@@@@...@@@@@
    ....@@@@@@@......@@@@@
    ..@@@@@@@........@@@@@
    .@@@@@@..........@@@@@
    @@@@@@...........@@@@@
    @@@@@............@@@@@
    @@@@@............@@@@@
    @@@@@...........@@@@@@
    @@@@@@........@@@@@@@@
    .@@@@@@.....@@@@@.@@@@
    .@@@@@@@@@@@@@@@.@@@@@
    ...@@@@@@@@@@@...@@@@@
    .....@@@@@@@.....@@@@@
    ......................
    ......................
    ......................
    ......................
    ......................
    ......................
    ......................
    ......................
    ......................

    left-bearing: 2
    right-bearing: 4


0x62:
    .........................
    .........................
    .........................
    .........................
    .........................
    .........................
    .........................
    @@@@@....................
    @@@@@....................
    @@@@@....................
    @@@@@....................
    @@@@@....................
    @@@@@....................
    @@@@@....................
    @@@@@....................
    @@@@@....................
    @@@@@....................
    @@@@@.....@@@@@@@........
    @@@@@...@@@@@@@@@@@......
    @@@@@.@@@@@@@@@@@@@@@....
    @@@@.@@@@@@@@@@@@@@@@@...
    @@@@@@@@@.......@@@@@@@..
    @@@@@@@...........@@@@@@.
    @@@@@@.............@@@@@.
    @@@@@..............@@@@@.
    @@@@@...............@@@@@
    @@@@@...............@@@@@
    @@@@@...............@@@@@
    @@@@@...............@@@@@
    @@@@@...............@@@@@
    @@@@@...............@@@@@
    @@@@@...............@@@@@
    @@@@@...............@@@@@
    @@@@@...............@@@@@
    @@@@@...............@@@@@
    @@@@@..............@@@@@.
    @@@@@@.............@@@@@.
    @@@@@@@...........@@@@@..
    @@@@@@@@@.......@@@@@@@..
    @@@@.@@@@@@@@@@@@@@@@@...
    @@@@@.@@@@@@@@@@@@@@@....
    @@@@@...@@@@@@@@@@@......
    @@@@@.....@@@@@@@........
    .........................
    .........................
    .........................
    .........................
    .........................
    .........................
    .........................
    .........................
    .........................

    left-bearing: 4
    right-bearing: 2


0x63:
    .........................
    .........................
    .........................
    .........................
    .........................
    .........................
    .........................
    .........................
    .........................
    .........................
    .........................
    .........................
    .........................
    .........................
    .........................
    .........................
    .........................
    .........@.@@@@.@........
    .......@@@@@@@@@@@@......
    .....@@@@@@@@@@@@@@@@....
    ....@@@@@@@@@@@@@@@@@@...
    ...@@@@@@@......@@@@@@@..
    ..@@@@@@..........@@@@@..
    ..@@@@@............@@@@@.
    .@@@@@.............@@@@@.
    .@@@@@..............@@@@@
    @@@@@...............@@@@@
    @@@@@....................
    @@@@@....................
    @@@@@....................
    @@@@@....................
    @@@@@....................
    @@@@@....................
    @@@@@...............@@@@@
    .@@@@@..............@@@@@
    .@@@@@.............@@@@@.
    ..@@@@@............@@@@@.
    ..@@@@@@..........@@@@@..
    ...@@@@@@@......@@@@@@@..
    ....@@@@@@@@@@@@@@@@@@...
    .....@@@@@@@@@@@@@@@@....
    .......@@@@@@@@@@@@......
    .........@.@@@@.@........
    .........................
    .........................
    .........................
    .........................
    .........................
    .........................
    .........................
    .........................
    .........................

    left-bearing: 2
    right-bearing: 2


0x64:
    .........................
    .........................
    .........................
    .........................
    .........................
    .........................
    .........................
    ....................@@@@@
    ....................@@@@@
    ....................@@@@@
    ....................@@@@@
    ....................@@@@@
    ....................@@@@@
    ....................@@@@@
    ....................@@@@@
    ....................@@@@@
    ....................@@@@@
    ........@@@@@@@.....@@@@@
    ......@@@@@@@@@@@...@@@@@
    ....@@@@@@@@@@@@@@@.@@@@@
    ...@@@@@@@@@@@@@@@@@.@@@@
    ..@@@@@@@.......@@@@@@@@@
    ..@@@@@...........@@@@@@@
    .@@@@@.............@@@@@@
    .@@@@@..............@@@@@
    @@@@@...............@@@@@
    @@@@@...............@@@@@
    @@@@@...............@@@@@
    @@@@@...............@@@@@
    @@@@@...............@@@@@
    @@@@@...............@@@@@
    @@@@@...............@@@@@
    @@@@@...............@@@@@
    @@@@@...............@@@@@
    @@@@@...............@@@@@
    .@@@@@..............@@@@@
    .@@@@@.............@@@@@@
    ..@@@@@...........@@@@@@@
    ..@@@@@@@.......@@@@@@@@@
    ...@@@@@@@@@@@@@@@@@.@@@@
    ....@@@@@@@@@@@@@@@.@@@@@
    ......@@@@@@@@@@@...@@@@@
    ........@@@@@@@.....@@@@@
    .........................
    .........................
    .........................
    .........................
    .........................
    .........................
    .........................
    .........................
    .........................

    left-bearing: 2
    right-bearing: 4


0x65:
    .........................
    .........................
    .........................
    .........................
    .........................
    .........................
    .........................
    .........................
    .........................
    .........................
    .........................
    .........................
    .........................
    .........................
    .........................
    .........................
    .........................
    .........@.@@@.@.........
    .......@@@@@@@@@@@.......
    .....@@@@@@@@@@@@@@@.....
    ....@@@@@@@@@@@@@@@@@....
    ...@@@@@@@.....@@@@@@@...
    ..@@@@@@.........@@@@@@..
    ..@@@@@...........@@@@@..
    .@@@@@.............@@@@@.
    .@@@@@.............@@@@@.
    @@@@@...............@@@@@
    @@@@@...............@@@@@
    @@@@@...............@@@@@
    @@@@.@@@@@@@@@@@@@@@.@@@@
    @@@@@@@@@@@@@@@@@@@@@@@@@
    @@@@@@@@@@@@@@@@@@@@@@@@@
    @@@@@....................
    @@@@@....................
    .@@@@@...................
    .@@@@@.............@@@@@.
    ..@@@@@............@@@@@.
    ..@@@@@@..........@@@@@..
    ...@@@@@@@......@@@@@@...
    ....@@@@@@@@@@@@@@@@@....
    .....@@@@@@@@@@@@@@@.....
    .......@@@@@@@@@@@.......
    .........@.@@@.@.........
    .........................
    .........................
    .........................
    .........................
    .........................
    .........................
    .........................
    .........................
    .........................

    left-bearing: 2
    right-bearing: 2


0x66:
    .............
    .............
    .............
    .............
    .............
    .............
    .............
    ........@@@@@
    ......@@@@@@@
    .....@@@@@@@@
    .....@@@@@@@@
    ....@@@@@@...
    ....@@@@@....
    ....@@@@@....
    ....@@@@@....
    ....@@@@@....
    ....@@@@@....
    ....@@@@@....
    ....@@@@@....
    @@@@.@@@.@@@@
    @@@@@@@@@@@@@
    @@@@@@@@@@@@@
    @@@@.@@@.@@@@
    ....@@@@@....
    ....@@@@@....
    ....@@@@@....
    ....@@@@@....
    ....@@@@@....
    ....@@@@@....
    ....@@@@@....
    ....@@@@@....
    ....@@@@@....
    ....@@@@@....
    ....@@@@@....
    ....@@@@@....
    ....@@@@@....
    ....@@@@@....
    ....@@@@@....
    ....@@@@@....
    ....@@@@@....
    ....@@@@@....
    ....@@@@@....
    ....@@@@@....
    .............
    .............
    .............
    .............
    .............
    .............
    .............
    .............
    .............

    left-bearing: 2
    right-bearing: 2


0x67:
    .........................
    .........................
    .........................
    .........................
    .........................
    .........................
    .........................
    .........................
    .........................
    .........................
    .........................
    .........................
    .........................
    .........................
    .........................
    .........................
    .........................
    ........@@@@@@@.....@@@@@
    ......@@@@@@@@@@@...@@@@@
    ....@@@@@@@@@@@@@@@.@@@@@
    ...@@@@@@@@@@@@@@@@@.@@@@
    ..@@@@@@@.......@@@@@@@@@
    ..@@@@@...........@@@@@@@
    .@@@@@.............@@@@@@
    .@@@@@..............@@@@@
    @@@@@...............@@@@@
    @@@@@...............@@@@@
    @@@@@...............@@@@@
    @@@@@...............@@@@@
    @@@@@...............@@@@@
    @@@@@...............@@@@@
    @@@@@...............@@@@@
    @@@@@...............@@@@@
    @@@@@...............@@@@@
    @@@@@...............@@@@@
    .@@@@@..............@@@@@
    .@@@@@.............@@@@@@
    ..@@@@@...........@@@@@@@
    ..@@@@@@@.......@@@@@@@@@
    ...@@@@@@@@@@@@@@@@@.@@@@
    ....@@@@@@@@@@@@@@@.@@@@@
    ......@@@@@@@@@@@...@@@@@
    ........@@@@@@@.....@@@@@
    ....................@@@@@
    ...................@@@@@.
    ..@@@@@............@@@@@.
    ..@@@@@...........@@@@@..
    ...@@@@@........@@@@@@@..
    ...@@@@@@@@@@@@@@@@@@@...
    ....@@@@@@@@@@@@@@@@@....
    ......@@@@@@@@@@@@@......
    ........@.@@@@@.@........

    left-bearing: 2
    right-bearing: 4


0x68:
    ........................
    ........................
    ........................
    ........................
    ........................
    ........................
    ........................
    @@@@@...................
    @@@@@...................
    @@@@@...................
    @@@@@...................
    @@@@@...................
    @@@@@...................
    @@@@@...................
    @@@@@...................
    @@@@@...................
    @@@@@...................
    @@@@@.....@@@@@@@.......
    @@@@@...@@@@@@@@@@@.....
    @@@@@.@@@@@@@@@@@@@@@...
    @@@@.@@@@@@@@@@@@@@@@@..
    @@@@@@@@@......@@@@@@@@.
    @@@@@@@..........@@@@@@.
    @@@@@@............@@@@@@
    @@@@@.............@@@@@@
    @@@@@..............@@@@@
    @@@@@..............@@@@@
    @@@@@..............@@@@@
    @@@@@..............@@@@@
    @@@@@..............@@@@@
    @@@@@..............@@@@@
    @@@@@..............@@@@@
    @@@@@..............@@@@@
    @@@@@..............@@@@@
    @@@@@..............@@@@@
    @@@@@..............@@@@@
    @@@@@..............@@@@@
    @@@@@..............@@@@@
    @@@@@..............@@@@@
    @@@@@..............@@@@@
    @@@@@..............@@@@@
    @@@@@..............@@@@@
    @@@@@..............@@@@@
    ........................
    ........................
    ........................
    ........................
    ........................
    ........................
    ........................
    ........................
    ........................

    left-bearing: 4
    right-bearing: 4


0x69:
    .....
    .....
    .....
    .....
    .....
    .....
    .....
    @@@@@
    @@@@@
    @@@@@
    @@@@@
    .....
    .....
    .....
    .....
    .....
    .....
    @@@@@
    @@@@@
    @@@@@
    @@@@@
    @@@@@
    @@@@@
    @@@@@
    @@@@@
    @@@@@
    @@@@@
    @@@@@
    @@@@@
    @@@@@
    @@@@@
    @@@@@
    @@@@@
    @@@@@
    @@@@@
    @@@@@
    @@@@@
    @@@@@
    @@@@@
    @@@@@
    @@@@@
    @@@@@
    @@@@@
    .....
    .....
    .....
    .....
    .....
    .....
    .....
    .....
    .....

    left-bearing: 5
    right-bearing: 5


0x6a:
    .........
    .........
    .........
    .........
    .........
    .........
    .........
    ....@@@@@
    ....@@@@@
    ....@@@@@
    ....@@@@@
    .........
    .........
    .........
    .........
    .........
    .........
    ....@@@@@
    ....@@@@@
    ....@@@@@
    ....@@@@@
    ....@@@@@
    ....@@@@@
    ....@@@@@
    ....@@@@@
    ....@@@@@
    ....@@@@@
    ....@@@@@
    ....@@@@@
    ....@@@@@
    ....@@@@@
    ....@@@@@
    ....@@@@@
    ....@@@@@
    ....@@@@@
    ....@@@@@
    ....@@@@@
    ....@@@@@
    ....@@@@@
    ....@@@@@
    ....@@@@@
    ....@@@@@
    ....@@@@@
    ....@@@@@
    ....@@@@@
    ....@@@@@
    ....@@@@@
    ...@@@@@@
    @@@@@@@@.
    @@@@@@@@.
    @@@@@@@..
    @@@@@....

    right-bearing: 4


0x6b:
    .........................
    .........................
    .........................
    .........................
    .........................
    .........................
    .........................
    @@@@@....................
    @@@@@....................
    @@@@@....................
    @@@@@....................
    @@@@@....................
    @@@@@....................
    @@@@@....................
    @@@@@....................
    @@@@@....................
    @@@@@....................
    @@@@@.............@@@@@@.
    @@@@@............@@@@@@..
    @@@@@...........@@@@@@...
    @@@@@..........@@@@@@....
    @@@@@.........@@@@@@.....
    @@@@@........@@@@@@......
    @@@@@.......@@@@@@.......
    @@@@@......@@@@@@........
    @@@@@.....@@@@@@.........
    @@@@@....@@@@@@..........
    @@@@@...@@@@@@...........
    @@@@@..@@@@@@............
    @@@@@.@@@@@@.............
    @@@@.@@@@@@@@............
    @@@@@@@@@@@@@@...........
    @@@@@@@@.@@@@@@..........
    @@@@@@@...@@@@@@.........
    @@@@@@.....@@@@@@........
    @@@@@.......@@@@@@.......
    @@@@@........@@@@@@......
    @@@@@.........@@@@@@.....
    @@@@@..........@@@@@@....
    @@@@@...........@@@@@@...
    @@@@@............@@@@@@..
    @@@@@.............@@@@@@.
    @@@@@..............@@@@@@
    .........................
    .........................
    .........................
    .........................
    .........................
    .........................
    .........................
    .........................
    .........................

    left-bearing: 4
    right-bearing: 1


0x6c:
    .....
    .....
    .....
    .....
    .....
    .....
    .....
    @@@@@
    @@@@@
    @@@@@
    @@@@@
    @@@@@
    @@@@@
    @@@@@
    @@@@@
    @@@@@
    @@@@@
    @@@@@
    @@@@@
    @@@@@
    @@@@@
    @@@@@
    @@@@@
    @@@@@
    @@@@@
    @@@@@
    @@@@@
    @@@@@
    @@@@@
    @@@@@
    @@@@@
    @@@@@
    @@@@@
    @@@@@
    @@@@@
    @@@@@
    @@@@@
    @@@@@
    @@@@@
    @@@@@
    @@@@@
    @@@@@
    @@@@@
    .....
    .....
    .....
    .....
    .....
    .....
    .....
    .....
    .....

    left-bearing: 5
    right-bearing: 5


0x6d:
    .......................................
    .......................................
    .......................................
    .......................................
    .......................................
    .......................................
    .......................................
    .......................................
    .......................................
    .......................................
    .......................................
    .......................................
    .......................................
    .......................................
    .......................................
    .......................................
    .......................................
    @@@@@.....@@@@............@@@@@........
    @@@@@...@@@@@@@@........@@@@@@@@@@.....
    @@@@@.@@@@@@@@@@@@....@@@@@@@@@@@@@@...
    @@@@.@@@@@@@@@@@@@@..@@@@@@@@@@@@@@@@..
    @@@@@@@@@....@@@@@@@.@@@@@....@@@@@@@@.
    @@@@@@@........@@@@@@@@@........@@@@@@.
    @@@@@@..........@@@@@@@..........@@@@@@
    @@@@@...........@@@@@@...........@@@@@@
    @@@@@............@@@@@............@@@@@
    @@@@@............@@@@@............@@@@@
    @@@@@............@@@@@............@@@@@
    @@@@@............@@@@@............@@@@@
    @@@@@............@@@@@............@@@@@
    @@@@@............@@@@@............@@@@@
    @@@@@............@@@@@............@@@@@
    @@@@@............@@@@@............@@@@@
    @@@@@............@@@@@............@@@@@
    @@@@@............@@@@@............@@@@@
    @@@@@............@@@@@............@@@@@
    @@@@@............@@@@@............@@@@@
    @@@@@............@@@@@............@@@@@
    @@@@@............@@@@@............@@@@@
    @@@@@............@@@@@............@@@@@
    @@@@@............@@@@@............@@@@@
    @@@@@............@@@@@............@@@@@
    @@@@@............@@@@@............@@@@@
    .......................................
    .......................................
    .......................................
    .......................................
    .......................................
    .......................................
    .......................................
    .......................................
    .......................................

    left-bearing: 4
    right-bearing: 4


0x6e:
    ........................
    ........................
    ........................
    ........................
    ........................
    ........................
    ........................
    ........................
    ........................
    ........................
    ........................
    ........................
    ........................
    ........................
    ........................
    ........................
    ........................
    @@@@@.....@@@@@@@.......
    @@@@@...@@@@@@@@@@@.....
    @@@@@.@@@@@@@@@@@@@@@...
    @@@@.@@@@@@@@@@@@@@@@@..
    @@@@@@@@@......@@@@@@@@.
    @@@@@@@..........@@@@@@.
    @@@@@@............@@@@@@
    @@@@@.............@@@@@@
    @@@@@..............@@@@@
    @@@@@..............@@@@@
    @@@@@..............@@@@@
    @@@@@..............@@@@@
    @@@@@..............@@@@@
    @@@@@..............@@@@@
    @@@@@..............@@@@@
    @@@@@..............@@@@@
    @@@@@..............@@@@@
    @@@@@..............@@@@@
    @@@@@..............@@@@@
    @@@@@..............@@@@@
    @@@@@..............@@@@@
    @@@@@..............@@@@@
    @@@@@..............@@@@@
    @@@@@..............@@@@@
    @@@@@..............@@@@@
    @@@@@..............@@@@@
    ........................
    ........................
    ........................
    ........................
    ........................
    ........................
    ........................
    ........................
    ........................

    left-bearing: 4
    right-bearing: 4


0x6f:
    ..........................
    ..........................
    ..........................
    ..........................
    ..........................
    ..........................
    ..........................
    ..........................
    ..........................
    ..........................
    ..........................
    ..........................
    ..........................
    ..........................
    ..........................
    ..........................
    ..........................
    .........@.@@@@.@.........
    .......@@@@@@@@@@@@.......
    .....@@@@@@@@@@@@@@@@.....
    ....@@@@@@@@@@@@@@@@@@....
    ...@@@@@@@......@@@@@@@...
    ..@@@@@@..........@@@@@@..
    ..@@@@@............@@@@@..
    .@@@@@..............@@@@@.
    .@@@@@..............@@@@@.
    @@@@@................@@@@@
    @@@@@................@@@@@
    @@@@@................@@@@@
    @@@@@................@@@@@
    @@@@@................@@@@@
    @@@@@................@@@@@
    @@@@@................@@@@@
    @@@@@................@@@@@
    .@@@@@..............@@@@@.
    .@@@@@..............@@@@@.
    ..@@@@@............@@@@@..
    ..@@@@@@..........@@@@@@..
    ...@@@@@@@......@@@@@@@...
    ....@@@@@@@@@@@@@@@@@@....
    .....@@@@@@@@@@@@@@@@.....
    .......@@@@@@@@@@@@.......
    .........@.@@@@.@.........
    ..........................
    ..........................
    ..........................
    ..........................
    ..........................
    ..........................
    ..........................
    ..........................
    ..........................

    left-bearing: 2
    right-bearing: 2


0x70:
    .........................
    .........................
    .........................
    .........................
    .........................
    .........................
    .........................
    .........................
    .........................
    .........................
    .........................
    .........................
    .........................
    .........................
    .........................
    .........................
    .........................
    @@@@@.....@@@@@@@........
    @@@@@...@@@@@@@@@@@......
    @@@@@.@@@@@@@@@@@@@@@....
    @@@@.@@@@@@@@@@@@@@@@@...
    @@@@@@@@@.......@@@@@@@..
    @@@@@@@...........@@@@@..
    @@@@@@.............@@@@@.
    @@@@@..............@@@@@.
    @@@@@...............@@@@@
    @@@@@...............@@@@@
    @@@@@...............@@@@@
    @@@@@...............@@@@@
    @@@@@...............@@@@@
    @@@@@...............@@@@@
    @@@@@...............@@@@@
    @@@@@...............@@@@@
    @@@@@...............@@@@@
    @@@@@...............@@@@@
    @@@@@..............@@@@@.
    @@@@@@.............@@@@@.
    @@@@@@@...........@@@@@..
    @@@@@@@@@.......@@@@@@@..
    @@@@.@@@@@@@@@@@@@@@@@...
    @@@@@.@@@@@@@@@@@@@@@....
    @@@@@...@@@@@@@@@@@......
    @@@@@.....@@@@@@@........
    @@@@@....................
    @@@@@....................
    @@@@@....................
    @@@@@....................
    @@@@@....................
    @@@@@....................
    @@@@@....................
    @@@@@....................
    @@@@@....................

    left-bearing: 4
    right-bearing: 2


0x71:
    .........................
    .........................
    .........................
    .........................
    .........................
    .........................
    .........................
    .........................
    .........................
    .........................
    .........................
    .........................
    .........................
    .........................
    .........................
    .........................
    .........................
    ........@@@@@@@.....@@@@@
    ......@@@@@@@@@@@...@@@@@
    ....@@@@@@@@@@@@@@@.@@@@@
    ...@@@@@@@@@@@@@@@@@.@@@@
    ..@@@@@@@.......@@@@@@@@@
    ..@@@@@...........@@@@@@@
    .@@@@@.............@@@@@@
    .@@@@@..............@@@@@
    @@@@@...............@@@@@
    @@@@@...............@@@@@
    @@@@@...............@@@@@
    @@@@@...............@@@@@
    @@@@@...............@@@@@
    @@@@@...............@@@@@
    @@@@@...............@@@@@
    @@@@@...............@@@@@
    @@@@@...............@@@@@
    @@@@@...............@@@@@
    .@@@@@..............@@@@@
    .@@@@@.............@@@@@@
    ..@@@@@...........@@@@@@@
    ..@@@@@@@.......@@@@@@@@@
    ...@@@@@@@@@@@@@@@@@.@@@@
    ....@@@@@@@@@@@@@@@.@@@@@
    ......@@@@@@@@@@@...@@@@@
    ........@@@@@@@.....@@@@@
    ....................@@@@@
    ....................@@@@@
    ....................@@@@@
    ....................@@@@@
    ....................@@@@@
    ....................@@@@@
    ....................@@@@@
    ....................@@@@@
    ....................@@@@@

    left-bearing: 2
    right-bearing: 4


0x72:
    ..............
    ..............
    ..............
    ..............
    ..............
    ..............
    ..............
    ..............
    ..............
    ..............
    ..............
    ..............
    ..............
    ..............
    ..............
    ..............
    ..............
    @@@@@....@@@@@
    @@@@@..@@@@@@@
    @@@@@.@@@@@@@@
    @@@@.@@@@@@@@@
    @@@@@@@@@@....
    @@@@@@@@......
    @@@@@@@.......
    @@@@@@........
    @@@@@@........
    @@@@@.........
    @@@@@.........
    @@@@@.........
    @@@@@.........
    @@@@@.........
    @@@@@.........
    @@@@@.........
    @@@@@.........
    @@@@@.........
    @@@@@.........
    @@@@@.........
    @@@@@.........
    @@@@@.........
    @@@@@.........
    @@@@@.........
    @@@@@.........
    @@@@@.........
    ..............
    ..............
    ..............
    ..............
    ..............
    ..............
    ..............
    ..............
    ..............

    left-bearing: 4
    right-bearing: 2


0x73:
    ......................
    ......................
    ......................
    ......................
    ......................
    ......................
    ......................
    ......................
    ......................
    ......................
    ......................
    ......................
    ......................
    ......................
    ......................
    ......................
    ......................
    ........@.@@@.@.......
    ......@@@@@@@@@@@.....
    ....@@@@@@@@@@@@@@@...
    ...@@@@@@@@@@@@@@@@@..
    ..@@@@@@.......@@@@@@.
    ..@@@@@.........@@@@@.
    .@@@@@...........@@@@@
    .@@@@@...........@@@@@
    .@@@@@................
    .@@@@@@...............
    ..@@@@@@@.............
    ...@@@@@@@@@..........
    .....@@@@@@@@@@.......
    .......@@@@@@@@@@@....
    ..........@@@@@@@@@@..
    .............@@@@@@@@.
    ................@@@@@@
    .................@@@@@
    @@@@@............@@@@@
    @@@@@............@@@@@
    .@@@@@..........@@@@@.
    .@@@@@@........@@@@@@.
    ..@@@@@@@@@@@@@@@@@@..
    ...@@@@@@@@@@@@@@@@...
    .....@@@@@@@@@@@@.....
    .......@.@@@@.@.......
    ......................
    ......................
    ......................
    ......................
    ......................
    ......................
    ......................
    ......................
    ......................

    left-bearing: 2
    right-bearing: 2


0x74:
    .............
    .............
    .............
    .............
    .............
    .............
    .............
    .............
    .............
    .............
    ....@@@@@....
    ....@@@@@....
    ....@@@@@....
    ....@@@@@....
    ....@@@@@....
    ....@@@@@....
    ....@@@@@....
    @@@@.@@@.@@@@
    @@@@@@@@@@@@@
    @@@@@@@@@@@@@
    @@@@.@@@.@@@@
    ....@@@@@....
    ....@@@@@....
    ....@@@@@....
    ....@@@@@....
    ....@@@@@....
    ....@@@@@....
    ....@@@@@....
    ....@@@@@....
    ....@@@@@....
    ....@@@@@....
    ....@@@@@....
    ....@@@@@....
    ....@@@@@....
    ....@@@@@....
    ....@@@@@....
    ....@@@@@....
    ....@@@@@....
    ....@@@@@@...
    .....@@@@@@@@
    .....@@@@@@@@
    ......@@@@@@@
    ........@@@@@
    .............
    .............
    .............
    .............
    .............
    .............
    .............
    .............
    .............

    left-bearing: 2
    right-bearing: 2


0x75:
    ........................
    ........................
    ........................
    ........................
    ........................
    ........................
    ........................
    ........................
    ........................
    ........................
    ........................
    ........................
    ........................
    ........................
    ........................
    ........................
    ........................
    @@@@@..............@@@@@
    @@@@@..............@@@@@
    @@@@@..............@@@@@
    @@@@@..............@@@@@
    @@@@@..............@@@@@
    @@@@@..............@@@@@
    @@@@@..............@@@@@
    @@@@@..............@@@@@
    @@@@@..............@@@@@
    @@@@@..............@@@@@
    @@@@@..............@@@@@
    @@@@@..............@@@@@
    @@@@@..............@@@@@
    @@@@@..............@@@@@
    @@@@@..............@@@@@
    @@@@@..............@@@@@
    @@@@@..............@@@@@
    @@@@@..............@@@@@
    @@@@@@.............@@@@@
    .@@@@@............@@@@@@
    .@@@@@@..........@@@@@@@
    ..@@@@@@@......@@@@@@@@@
    ...@@@@@@@@@@@@@@@@.@@@@
    ....@@@@@@@@@@@@@@.@@@@@
    ......@@@@@@@@@@...@@@@@
    ........@@@@@@.....@@@@@
    ........................
    ........................
    ........................
    ........................
    ........................
    ........................
    ........................
    ........................
    ........................

    left-bearing: 4
    right-bearing: 4


0x76:
    ...........................
    ...........................
    ...........................
    ...........................
    ...........................
    ...........................
    ...........................
    ...........................
    ...........................
    ...........................
    ...........................
    ...........................
    ...........................
    ...........................
    ...........................
    ...........................
    ...........................
    @@@@@.................@@@@@
    @@@@@.................@@@@@
    .@@@@@...............@@@@@.
    .@@@@@...............@@@@@.
    .@@@@@...............@@@@@.
    ..@@@@@.............@@@@@..
    ..@@@@@.............@@@@@..
    ...@@@@@...........@@@@@...
    ...@@@@@...........@@@@@...
    ....@@@@@.........@@@@@....
    ....@@@@@.........@@@@@....
    ....@@@@@.........@@@@@....
    .....@@@@@.......@@@@@.....
    .....@@@@@.......@@@@@.....
    ......@@@@@.....@@@@@......
    ......@@@@@.....@@@@@......
    .......@@@@.....@@@@.......
    .......@@@@@...@@@@@.......
    ........@@@@...@@@@........
    ........@@@@...@@@@........
    .........@@@@.@@@@.........
    .........@@@@.@@@@.........
    ..........@@@.@@@..........
    ..........@@@@@@@..........
    ...........@@@@@...........
    ...........@@@@@...........
    ...........................
    ...........................
    ...........................
    ...........................
    ...........................
    ...........................
    ...........................
    ...........................
    ...........................

    left-bearing: 1
    right-bearing: 1


0x77:
    ...........................................
    ...........................................
    ...........................................
    ...........................................
    ...........................................
    ...........................................
    ...........................................
    ...........................................
    ...........................................
    ...........................................
    ...........................................
    ...........................................
    ...........................................
    ...........................................
    ...........................................
    ...........................................
    ...........................................
    @@@@@.................................@@@@@
    @@@@@.................................@@@@@
    @@@@@..............@@@@@..............@@@@@
    .@@@@@.............@@@@@.............@@@@@.
    .@@@@@............@@@@@@@............@@@@@.
    .@@@@@............@@@@@@@............@@@@@.
    ..@@@@@..........@@@@@@@@@..........@@@@@..
    ..@@@@@..........@@@@.@@@@..........@@@@@..
    ..@@@@@..........@@@@.@@@@..........@@@@@..
    ...@@@@@........@@@@@.@@@@@........@@@@@...
    ...@@@@@........@@@@...@@@@........@@@@@...
    ...@@@@@.......@@@@@...@@@@@.......@@@@@...
    ....@@@@@......@@@@@...@@@@@......@@@@@....
    ....@@@@@.....@@@@@.....@@@@@.....@@@@@....
    ....@@@@@.....@@@@@.....@@@@@.....@@@@@....
    .....@@@@@....@@@@.......@@@@....@@@@@.....
    .....@@@@@...@@@@@.......@@@@@...@@@@@.....
    .....@@@@@...@@@@.........@@@@...@@@@@.....
    ......@@@@...@@@@.........@@@@...@@@@......
    ......@@@@@.@@@@...........@@@@.@@@@@......
    .......@@@@.@@@@...........@@@@.@@@@.......
    .......@@@@.@@@@...........@@@@.@@@@.......
    ........@@@@@@@.............@@@@@@@........
    ........@@@@@@@.............@@@@@@@........
    .........@@@@@...............@@@@@.........
    .........@@@@@...............@@@@@.........
    ...........................................
    ...........................................
    ...........................................
    ...........................................
    ...........................................
    ...........................................
    ...........................................
    ...........................................
    ...........................................

    left-bearing: 1
    right-bearing: 1


0x78:
    .............................
    .............................
    .............................
    .............................
    .............................
    .............................
    .............................
    .............................
    .............................
    .............................
    .............................
    .............................
    .............................
    .............................
    .............................
    .............................
    .............................
    @@@@@@.................@@@@@@
    .@@@@@@...............@@@@@@.
    ..@@@@@@.............@@@@@@..
    ...@@@@@@...........@@@@@@...
    ....@@@@@@.........@@@@@@....
    .....@@@@@@.......@@@@@@.....
    ......@@@@@@.....@@@@@@......
    .......@@@@@@...@@@@@@.......
    ........@@@@@@.@@@@@@........
    .........@@@@@@@@@@@.........
    ..........@@@@@@@@@..........
    ...........@@@@@@@...........
    ............@@@@@............
    ............@@@@@............
    ...........@@@@@@@...........
    ..........@@@@@@@@@..........
    .........@@@@@@@@@@@.........
    ........@@@@@@.@@@@@@........
    .......@@@@@@...@@@@@@.......
    ......@@@@@@.....@@@@@@......
    .....@@@@@@.......@@@@@@.....
    ....@@@@@@.........@@@@@@....
    ...@@@@@@...........@@@@@@...
    ..@@@@@@.............@@@@@@..
    .@@@@@@...............@@@@@@.
    @@@@@@.................@@@@@@
    .............................
    .............................
    .............................
    .............................
    .............................
    .............................
    .............................
    .............................
    .............................

    left-bearing: 1
    right-bearing: 1


0x79:
    ..............................
    ..............................
    ..............................
    ..............................
    ..............................
    ..............................
    ..............................
    ..............................
    ..............................
    ..............................
    ..............................
    ..............................
    ..............................
    ..............................
    ..............................
    ..............................
    ..............................
    @@@@@....................@@@@@
    @@@@@....................@@@@@
    .@@@@@..................@@@@@.
    .@@@@@..................@@@@@.
    ..@@@@@................@@@@@..
    ..@@@@@................@@@@@..
    ...@@@@@..............@@@@@...
    ...@@@@@..............@@@@@...
    ....@@@@@............@@@@@....
    ....@@@@@............@@@@@....
    .....@@@@@..........@@@@@.....
    .....@@@@@..........@@@@@.....
    ......@@@@@........@@@@@......
    ......@@@@@........@@@@@......
    .......@@@@@......@@@@@.......
    .......@@@@@......@@@@@.......
    ........@@@@@....@@@@@........
    ........@@@@@....@@@@@........
    .........@@@@@..@@@@@.........
    .........@@@@@..@@@@@.........
    ..........@@@@.@@@@@..........
    ..........@@@@.@@@@@..........
    ...........@@@@@@@@...........
    ...........@@@@@@@@...........
    ............@@@@@@............
    ............@@@@@@............
    ............@@@@@.............
    ............@@@@@.............
    ...........@@@@@..............
    ...........@@@@@..............
    .........@@@@@@...............
    ....@@@@@@@@@@@...............
    ....@@@@@@@@@@................
    ....@@@@@@@@@.................
    ....@@@@@@@...................

    left-bearing: 1
    right-bearing: 1


0x7a:
    ......................
    ......................
    ......................
    ......................
    ......................
    ......................
    ......................
    ......................
    ......................
    ......................
    ......................
    ......................
    ......................
    ......................
    ......................
    ......................
    ......................
    @@@@@@@@@@@@@@@@@@@@@@
    @@@@@@@@@@@@@@@@@@@@@@
    @@@@@@@@@@@@@@@@@@@@@@
    @@@@@@@@@@@@@@@.@@@@@@
    ...............@@@@@@.
    ..............@@@@@@..
    .............@@@@@@...
    ............@@@@@@....
    ...........@@@@@@.....
    ...........@@@@@......
    ..........@@@@@@......
    .........@@@@@@.......
    ........@@@@@@........
    .......@@@@@@.........
    ......@@@@@@..........
    .....@@@@@@...........
    .....@@@@@............
    ....@@@@@@............
    ...@@@@@@.............
    ..@@@@@@..............
    .@@@@@@...............
    @@@@@@................
    @@@@@.@@@@@@@@@@@@@@@@
    @@@@@@@@@@@@@@@@@@@@@@
    @@@@@@@@@@@@@@@@@@@@@@
    @@@@@@@@@@@@@@@@@@@@@@
    ......................
    ......................
    ......................
    ......................
    ......................
    ......................
    ......................
    ......................
    ......................

    left-bearing: 3
    right-bearing: 3


0x7b:
    ..............
    ..............
    ..............
    ..............
    .........@@@@@
    .......@@@@@@@
    ......@@@@@@@@
    ......@@@@....
    .....@@@@.....
    .....@@@@.....
    .....@@@@.....
    .....@@@@.....
    .....@@@@.....
    .....@@@@.....
    .....@@@@.....
    .....@@@@.....
    .....@@@@.....
    .....@@@@.....
    .....@@@@.....
    .....@@@@.....
    .....@@@@.....
    .....@@@@.....
    ....@@@@@.....
    ....@@@@......
    ...@@@@@......
    ..@@@@@.......
    .@@@@@........
    @@@@@.........
    .@@@@@........
    ..@@@@@.......
    ...@@@@@......
    ....@@@@......
    ....@@@@@.....
    .....@@@@.....
    .....@@@@.....
    .....@@@@.....
    .....@@@@.....
    .....@@@@.....
    .....@@@@.....
    .....@@@@.....
    .....@@@@.....
    .....@@@@.....
    .....@@@@.....
    .....@@@@.....
    .....@@@@.....
    .....@@@@.....
    .....@@@@.....
    ......@@@@....
    ......@@@@@@@@
    .......@@@@@@@
    .........@@@@@
    ..............

    left-bearing: 2
    right-bearing: 2


0x7c:
    ....
    ....
    ....
    ....
    @@@@
    @@@@
    @@@@
    @@@@
    @@@@
    @@@@
    @@@@
    @@@@
    @@@@
    @@@@
    @@@@
    @@@@
    @@@@
    @@@@
    @@@@
    @@@@
    @@@@
    @@@@
    @@@@
    @@@@
    @@@@
    @@@@
    @@@@
    @@@@
    @@@@
    @@@@
    @@@@
    @@@@
    @@@@
    @@@@
    @@@@
    @@@@
    @@@@
    @@@@
    @@@@
    @@@@
    @@@@
    @@@@
    @@@@
    @@@@
    @@@@
    @@@@
    @@@@
    @@@@
    @@@@
    ....
    ....
    ....

    left-bearing: 3
    right-bearing: 3


0x7d:
    ..............
    ..............
    ..............
    ..............
    @@@@@.........
    @@@@@@@.......
    @@@@@@@@......
    ....@@@@......
    .....@@@@.....
    .....@@@@.....
    .....@@@@.....
    .....@@@@.....
    .....@@@@.....
    .....@@@@.....
    .....@@@@.....
    .....@@@@.....
    .....@@@@.....
    .....@@@@.....
    .....@@@@.....
    .....@@@@.....
    .....@@@@.....
    .....@@@@.....
    .....@@@@@....
    ......@@@@....
    ......@@@@@...
    .......@@@@@..
    ........@@@@@.
    .........@@@@@
    ........@@@@@.
    .......@@@@@..
    ......@@@@@...
    ......@@@@....
    .....@@@@@....
    .....@@@@.....
    .....@@@@.....
    .....@@@@.....
    .....@@@@.....
    .....@@@@.....
    .....@@@@.....
    .....@@@@.....
    .....@@@@.....
    .....@@@@.....
    .....@@@@.....
    .....@@@@.....
    .....@@@@.....
    .....@@@@.....
    .....@@@@.....
    ....@@@@......
    @@@@@@@@......
    @@@@@@@.......
    @@@@@.........
    ..............

    left-bearing: 2
    right-bearing: 2


0x7e:
    ....@@@@........@@
    ..@@@@@@@@.....@@@
    .@@@..@@@@@@..@@@.
    @@@.....@@@@@@@@..
    @@........@@@@....
    ..................
    ..................
    ..................
    ..................
    ..................
    ..................
    ..................
    ..................
    ..................
    ..................
    ..................
    ..................
    ..................
    ..................
    ..................
    ..................
    ..................
    ..................
    ..................
    ..................
    ..................
    ..................
    ..................
    ..................
    ..................
    ..................
    ..................
    ..................
    ..................
    ..................
    ..................
    ..................
    ..................
    ..................
    ..................
    ..................
    ..................
    ..................
    ..................
    ..................
    ..................
    ..................
    ..................
    ..................
    ..................
    ..................
    ..................

    left-bearing: 7
    right-bearing: 7


0x7f:
    -

    left-bearing: 5
    right-bearing: -5


0x80:
    ........@@@@..........@@@@........
    ........@@@@..........@@@@........
    ........@@@@..........@@@@........
    ..................................
    ..................................
    ..................................
    ..................................
    ..............@@@@@@..............
    ..............@@@@@@..............
    .............@@@@@@@@.............
    .............@@@@@@@@.............
    ............@@@@@@@@@@............
    ............@@@@@@@@@@............
    ...........@@@@@..@@@@@...........
    ...........@@@@@..@@@@@...........
    ..........@@@@@....@@@@@..........
    ..........@@@@@....@@@@@..........
    .........@@@@@......@@@@@.........
    .........@@@@@......@@@@@.........
    .........@@@@@......@@@@@.........
    ........@@@@@........@@@@@........
    ........@@@@@........@@@@@........
    .......@@@@@..........@@@@@.......
    .......@@@@@..........@@@@@.......
    .......@@@@@..........@@@@@.......
    ......@@@@@............@@@@@......
    ......@@@@@............@@@@@......
    .....@@@@@.@@@@@@@@@@@@.@@@@@.....
    .....@@@@@@@@@@@@@@@@@@@@@@@@.....
    .....@@@@@@@@@@@@@@@@@@@@@@@@@....
    ....@@@@@@@@@@@@@@@@@@@@@@@@@@....
    ....@@@@@................@@@@@....
    ...@@@@@..................@@@@@...
    ...@@@@@..................@@@@@...
    ...@@@@@..................@@@@@...
    ..@@@@@....................@@@@@..
    ..@@@@@....................@@@@@..
    .@@@@@......................@@@@@.
    .@@@@@......................@@@@@.
    .@@@@@......................@@@@@.
    @@@@@........................@@@@@
    @@@@@........................@@@@@
    @@@@@........................@@@@@
    ..................................
    ..................................
    ..................................
    ..................................
    ..................................
    ..................................
    ..................................
    ..................................
    ..................................

    left-bearing: 1
    right-bearing: 1


0x81:
    ...............@@@@...............
    .............@@....@@.............
    ............@@......@@............
    ............@@......@@............
    ............@@......@@............
    ............@@......@@............
    .............@@....@@.............
    ..............@@@@@@..............
    ..............@@@@@@..............
    .............@@@@@@@@.............
    .............@@@@@@@@.............
    ............@@@@@@@@@@............
    ............@@@@@@@@@@............
    ...........@@@@@..@@@@@...........
    ...........@@@@@..@@@@@...........
    ..........@@@@@....@@@@@..........
    ..........@@@@@....@@@@@..........
    .........@@@@@......@@@@@.........
    .........@@@@@......@@@@@.........
    .........@@@@@......@@@@@.........
    ........@@@@@........@@@@@........
    ........@@@@@........@@@@@........
    .......@@@@@..........@@@@@.......
    .......@@@@@..........@@@@@.......
    .......@@@@@..........@@@@@.......
    ......@@@@@............@@@@@......
    ......@@@@@............@@@@@......
    .....@@@@@.@@@@@@@@@@@@.@@@@@.....
    .....@@@@@@@@@@@@@@@@@@@@@@@@.....
    .....@@@@@@@@@@@@@@@@@@@@@@@@@....
    ....@@@@@@@@@@@@@@@@@@@@@@@@@@....
    ....@@@@@................@@@@@....
    ...@@@@@..................@@@@@...
    ...@@@@@..................@@@@@...
    ...@@@@@..................@@@@@...
    ..@@@@@....................@@@@@..
    ..@@@@@....................@@@@@..
    .@@@@@......................@@@@@.
    .@@@@@......................@@@@@.
    .@@@@@......................@@@@@.
    @@@@@........................@@@@@
    @@@@@........................@@@@@
    @@@@@........................@@@@@
    ..................................
    ..................................
    ..................................
    ..................................
    ..................................
    ..................................
    ..................................
    ..................................
    ..................................

    left-bearing: 1
    right-bearing: 1


0x82:
    ..................................
    ..................................
    ..................................
    ..................................
    ..................................
    ..................................
    ..................................
    ............@.@@@@@@@.@...........
    ..........@@@@@@@@@@@@@@@.........
    ........@@@@@@@@@@@@@@@@@@@.......
    ......@@@@@@@@@@@@@@@@@@@@@@@.....
    .....@@@@@@@@.........@@@@@@@@....
    ....@@@@@@@.............@@@@@@@...
    ...@@@@@@.................@@@@@@..
    ..@@@@@@...................@@@@@@.
    ..@@@@@.....................@@@@@.
    .@@@@@@......................@@@@@
    .@@@@@.......................@@@@@
    @@@@@@............................
    @@@@@.............................
    @@@@@.............................
    @@@@@.............................
    @@@@@.............................
    @@@@@.............................
    @@@@@.............................
    @@@@@.............................
    @@@@@.............................
    @@@@@.............................
    @@@@@.............................
    @@@@@.............................
    @@@@@.............................
    @@@@@@............................
    .@@@@@.......................@@@@@
    .@@@@@@......................@@@@@
    ..@@@@@.....................@@@@@.
    ..@@@@@@...................@@@@@@.
    ...@@@@@@.................@@@@@@..
    ....@@@@@@@.............@@@@@@@...
    .....@@@@@@@@.........@@@@@@@@....
    ......@@@@@@@@@@@@@@@@@@@@@@@.....
    ........@@@@@@@@@@@@@@@@@@@.......
    ..........@@@@@@@@@@@@@@@.........
    ............@.@@@@@@@.@...........
    ..................................
    ..................................
    ................@@@@..............
    ................@@@@..............
    ................@@@@..............
    ..................@@..............
    ..................@@..............
    ..................@@..............
    ...............@@@@...............

    left-bearing: 3
    right-bearing: 3


0x83:
    .................@@@@.......
    ................@@@@........
    ...............@@@@.........
    ..............@@@@..........
    ............................
    ............................
    ............................
    @@@@@@@@@@@@@@@@@@@@@@@@@@@@
    @@@@@@@@@@@@@@@@@@@@@@@@@@@@
    @@@@@@@@@@@@@@@@@@@@@@@@@@@@
    @@@@.@@@@@@@@@@@@@@@@@@@@@@@
    @@@@@.......................
    @@@@@.......................
    @@@@@.......................
    @@@@@.......................
    @@@@@.......................
    @@@@@.......................
    @@@@@.......................
    @@@@@.......................
    @@@@@.......................
    @@@@@.......................
    @@@@@.......................
    @@@@@.......................
    @@@@.@@@@@@@@@@@@@@@@@@@@...
    @@@@@@@@@@@@@@@@@@@@@@@@@...
    @@@@@@@@@@@@@@@@@@@@@@@@@...
    @@@@.@@@@@@@@@@@@@@@@@@@@...
    @@@@@.......................
    @@@@@.......................
    @@@@@.......................
    @@@@@.......................
    @@@@@.......................
    @@@@@.......................
    @@@@@.......................
    @@@@@.......................
    @@@@@.......................
    @@@@@.......................
    @@@@@.......................
    @@@@@.......................
    @@@@.@@@@@@@@@@@@@@@@@@@@@@@
    @@@@@@@@@@@@@@@@@@@@@@@@@@@@
    @@@@@@@@@@@@@@@@@@@@@@@@@@@@
    @@@@@@@@@@@@@@@@@@@@@@@@@@@@
    ............................
    ............................
    ............................
    ............................
    ............................
    ............................
    ............................
    ............................
    ............................

    left-bearing: 5
    right-bearing: 2


0x84:
    ............@@@@........@@......
    ..........@@@@@@@@.....@@@......
    .........@@@..@@@@@@..@@@.......
    ........@@@.....@@@@@@@@........
    ........@@........@@@@..........
    ................................
    ................................
    @@@@.......................@@@@@
    @@@@@......................@@@@@
    @@@@@@.....................@@@@@
    @@@@@@@....................@@@@@
    @@@@@@@@...................@@@@@
    @@@@@@@@...................@@@@@
    @@@@@@@@@..................@@@@@
    @@@@.@@@@@.................@@@@@
    @@@@.@@@@@@................@@@@@
    @@@@@.@@@@@@...............@@@@@
    @@@@@..@@@@@@..............@@@@@
    @@@@@...@@@@@..............@@@@@
    @@@@@...@@@@@@.............@@@@@
    @@@@@....@@@@@@............@@@@@
    @@@@@.....@@@@@@...........@@@@@
    @@@@@......@@@@@@..........@@@@@
    @@@@@.......@@@@@@.........@@@@@
    @@@@@........@@@@@.........@@@@@
    @@@@@........@@@@@@........@@@@@
    @@@@@.........@@@@@@.......@@@@@
    @@@@@..........@@@@@@......@@@@@
    @@@@@...........@@@@@@.....@@@@@
    @@@@@............@@@@@@....@@@@@
    @@@@@.............@@@@@....@@@@@
    @@@@@.............@@@@@@...@@@@@
    @@@@@..............@@@@@@..@@@@@
    @@@@@...............@@@@@@.@@@@@
    @@@@@................@@@@@.@@@@@
    @@@@@.................@@@@@.@@@@
    @@@@@..................@@@@.@@@@
    @@@@@...................@@@@@@@@
    @@@@@....................@@@@@@@
    @@@@@.....................@@@@@@
    @@@@@......................@@@@@
    @@@@@.......................@@@@
    @@@@@........................@@@
    ................................
    ................................
    ................................
    ................................
    ................................
    ................................
    ................................
    ................................
    ................................

    left-bearing: 5
    right-bearing: 5


0x85:
    ........@@@@............@@@@........
    ........@@@@............@@@@........
    ........@@@@............@@@@........
    ....................................
    ....................................
    ....................................
    ....................................
    ............@.@@@@@@@@.@............
    ..........@@@@@@@@@@@@@@@@..........
    ........@@@@@@@@@@@@@@@@@@@@........
    ......@@@@@@@@@@@@@@@@@@@@@@@@......
    .....@@@@@@@@..........@@@@@@@@.....
    ....@@@@@@@..............@@@@@@@....
    ...@@@@@@..................@@@@@@...
    ..@@@@@@....................@@@@@@..
    ..@@@@........................@@@@..
    .@@@@@@......................@@@@@@.
    .@@@@..........................@@@@.
    @@@@@@........................@@@@@@
    @@@@@..........................@@@@@
    @@@@@..........................@@@@@
    @@@@@..........................@@@@@
    @@@@@..........................@@@@@
    @@@@@..........................@@@@@
    @@@@@..........................@@@@@
    @@@@@..........................@@@@@
    @@@@@..........................@@@@@
    @@@@@..........................@@@@@
    @@@@@..........................@@@@@
    @@@@@..........................@@@@@
    @@@@@..........................@@@@@
    @@@@@@........................@@@@@@
    .@@@@..........................@@@@.
    .@@@@@@......................@@@@@@.
    ..@@@@........................@@@@..
    ..@@@@@@....................@@@@@@..
    ...@@@@@@..................@@@@@@...
    ....@@@@@@@..............@@@@@@@....
    .....@@@@@@@@..........@@@@@@@@.....
    ......@@@@@@@@@@@@@@@@@@@@@@@@......
    ........@@@@@@@@@@@@@@@@@@@@........
    ..........@@@@@@@@@@@@@@@@..........
    ............@.@@@@@@@@.@............
    ....................................
    ....................................
    ....................................
    ....................................
    ....................................
    ....................................
    ....................................
    ....................................
    ....................................

    left-bearing: 3
    right-bearing: 3


0x86:
    ......@@@@............@@@@......
    ......@@@@............@@@@......
    ......@@@@............@@@@......
    ................................
    ................................
    ................................
    ................................
    @@@@@......................@@@@@
    @@@@@......................@@@@@
    @@@@@......................@@@@@
    @@@@@......................@@@@@
    @@@@@......................@@@@@
    @@@@@......................@@@@@
    @@@@@......................@@@@@
    @@@@@......................@@@@@
    @@@@@......................@@@@@
    @@@@@......................@@@@@
    @@@@@......................@@@@@
    @@@@@......................@@@@@
    @@@@@......................@@@@@
    @@@@@......................@@@@@
    @@@@@......................@@@@@
    @@@@@......................@@@@@
    @@@@@......................@@@@@
    @@@@@......................@@@@@
    @@@@@......................@@@@@
    @@@@@......................@@@@@
    @@@@@......................@@@@@
    @@@@@......................@@@@@
    @@@@@......................@@@@@
    @@@@@......................@@@@@
    @@@@@......................@@@@@
    @@@@@......................@@@@@
    @@@@@......................@@@@@
    @@@@@@....................@@@@@@
    .@@@@@....................@@@@@.
    .@@@@@@..................@@@@@@.
    ..@@@@@@................@@@@@@..
    ...@@@@@@@............@@@@@@@...
    ....@@@@@@@@@@@@@@@@@@@@@@@@....
    .....@@@@@@@@@@@@@@@@@@@@@@.....
    .......@@@@@@@@@@@@@@@@@@.......
    .........@.@@@@@@@@@@.@.........
    ................................
    ................................
    ................................
    ................................
    ................................
    ................................
    ................................
    ................................
    ................................

    left-bearing: 4
    right-bearing: 4


0x87:
    ......................
    ......................
    ......................
    ......................
    ......................
    ......................
    ......................
    ......................
    ..............@@@@....
    .............@@@@.....
    ............@@@@......
    ...........@@@@.......
    ..........@@@@........
    ......................
    ......................
    ......................
    ......................
    ........@.@@@.@.......
    ......@@@@@@@@@@@.....
    ....@@@@@@@@@@@@@@@...
    ...@@@@@@@@@@@@@@@@@..
    ..@@@@@@......@@@@@@@.
    .@@@@@@.........@@@@@.
    .@@@@@..........@@@@@@
    .@@@@@...........@@@@@
    .................@@@@@
    .................@@@@@
    ..............@@@@@@@@
    ...........@@@@@@@@@@@
    ........@@@@@@@@@.@@@@
    ......@@@@@@@@...@@@@@
    ....@@@@@@@......@@@@@
    ..@@@@@@@........@@@@@
    .@@@@@@..........@@@@@
    @@@@@@...........@@@@@
    @@@@@............@@@@@
    @@@@@............@@@@@
    @@@@@...........@@@@@@
    @@@@@@........@@@@@@@@
    .@@@@@@.....@@@@@.@@@@
    .@@@@@@@@@@@@@@@.@@@@@
    ...@@@@@@@@@@@...@@@@@
    .....@@@@@@@.....@@@@@
    ......................
    ......................
    ......................
    ......................
    ......................
    ......................
    ......................
    ......................
    ......................

    left-bearing: 2
    right-bearing: 4


0x88:
    ......................
    ......................
    ......................
    ......................
    ......................
    ......................
    ......................
    ......................
    .....@@@@.............
    ......@@@@............
    .......@@@@...........
    ........@@@@..........
    .........@@@@.........
    ......................
    ......................
    ......................
    ......................
    ........@.@@@.@.......
    ......@@@@@@@@@@@.....
    ....@@@@@@@@@@@@@@@...
    ...@@@@@@@@@@@@@@@@@..
    ..@@@@@@......@@@@@@@.
    .@@@@@@.........@@@@@.
    .@@@@@..........@@@@@@
    .@@@@@...........@@@@@
    .................@@@@@
    .................@@@@@
    ..............@@@@@@@@
    ...........@@@@@@@@@@@
    ........@@@@@@@@@.@@@@
    ......@@@@@@@@...@@@@@
    ....@@@@@@@......@@@@@
    ..@@@@@@@........@@@@@
    .@@@@@@..........@@@@@
    @@@@@@...........@@@@@
    @@@@@............@@@@@
    @@@@@............@@@@@
    @@@@@...........@@@@@@
    @@@@@@........@@@@@@@@
    .@@@@@@.....@@@@@.@@@@
    .@@@@@@@@@@@@@@@.@@@@@
    ...@@@@@@@@@@@...@@@@@
    .....@@@@@@@.....@@@@@
    ......................
    ......................
    ......................
    ......................
    ......................
    ......................
    ......................
    ......................
    ......................

    left-bearing: 2
    right-bearing: 4


0x89:
    ......................
    ......................
    ......................
    ......................
    ......................
    ......................
    ......................
    ......................
    ..........@@@@........
    .........@@@@@@.......
    ........@@@..@@@......
    .......@@@....@@@.....
    ......@@@......@@@....
    ......................
    ......................
    ......................
    ......................
    ........@.@@@.@.......
    ......@@@@@@@@@@@.....
    ....@@@@@@@@@@@@@@@...
    ...@@@@@@@@@@@@@@@@@..
    ..@@@@@@......@@@@@@@.
    .@@@@@@.........@@@@@.
    .@@@@@..........@@@@@@
    .@@@@@...........@@@@@
    .................@@@@@
    .................@@@@@
    ..............@@@@@@@@
    ...........@@@@@@@@@@@
    ........@@@@@@@@@.@@@@
    ......@@@@@@@@...@@@@@
    ....@@@@@@@......@@@@@
    ..@@@@@@@........@@@@@
    .@@@@@@..........@@@@@
    @@@@@@...........@@@@@
    @@@@@............@@@@@
    @@@@@............@@@@@
    @@@@@...........@@@@@@
    @@@@@@........@@@@@@@@
    .@@@@@@.....@@@@@.@@@@
    .@@@@@@@@@@@@@@@.@@@@@
    ...@@@@@@@@@@@...@@@@@
    .....@@@@@@@.....@@@@@
    ......................
    ......................
    ......................
    ......................
    ......................
    ......................
    ......................
    ......................
    ......................

    left-bearing: 2
    right-bearing: 4


0x8a:
    ......................
    ......................
    ......................
    ......................
    ......................
    ......................
    ......................
    ......................
    ......................
    ......................
    .....@@@@.....@@@@....
    .....@@@@.....@@@@....
    .....@@@@.....@@@@....
    ......................
    ......................
    ......................
    ......................
    ........@.@@@.@.......
    ......@@@@@@@@@@@.....
    ....@@@@@@@@@@@@@@@...
    ...@@@@@@@@@@@@@@@@@..
    ..@@@@@@......@@@@@@@.
    .@@@@@@.........@@@@@.
    .@@@@@..........@@@@@@
    .@@@@@...........@@@@@
    .................@@@@@
    .................@@@@@
    ..............@@@@@@@@
    ...........@@@@@@@@@@@
    ........@@@@@@@@@.@@@@
    ......@@@@@@@@...@@@@@
    ....@@@@@@@......@@@@@
    ..@@@@@@@........@@@@@
    .@@@@@@..........@@@@@
    @@@@@@...........@@@@@
    @@@@@............@@@@@
    @@@@@............@@@@@
    @@@@@...........@@@@@@
    @@@@@@........@@@@@@@@
    .@@@@@@.....@@@@@.@@@@
    .@@@@@@@@@@@@@@@.@@@@@
    ...@@@@@@@@@@@...@@@@@
    .....@@@@@@@.....@@@@@
    ......................
    ......................
    ......................
    ......................
    ......................
    ......................
    ......................
    ......................
    ......................

    left-bearing: 2
    right-bearing: 4


0x8b:
    ......................
    ......................
    ......................
    ......................
    ......................
    ......................
    ......................
    ......................
    ......@@@@........@@..
    ....@@@@@@@@.....@@@..
    ...@@@..@@@@@@..@@@...
    ..@@@.....@@@@@@@@....
    ..@@........@@@@......
    ......................
    ......................
    ......................
    ......................
    ........@.@@@.@.......
    ......@@@@@@@@@@@.....
    ....@@@@@@@@@@@@@@@...
    ...@@@@@@@@@@@@@@@@@..
    ..@@@@@@......@@@@@@@.
    .@@@@@@.........@@@@@.
    .@@@@@..........@@@@@@
    .@@@@@...........@@@@@
    .................@@@@@
    .................@@@@@
    ..............@@@@@@@@
    ...........@@@@@@@@@@@
    ........@@@@@@@@@.@@@@
    ......@@@@@@@@...@@@@@
    ....@@@@@@@......@@@@@
    ..@@@@@@@........@@@@@
    .@@@@@@..........@@@@@
    @@@@@@...........@@@@@
    @@@@@............@@@@@
    @@@@@............@@@@@
    @@@@@...........@@@@@@
    @@@@@@........@@@@@@@@
    .@@@@@@.....@@@@@.@@@@
    .@@@@@@@@@@@@@@@.@@@@@
    ...@@@@@@@@@@@...@@@@@
    .....@@@@@@@.....@@@@@
    ......................
    ......................
    ......................
    ......................
    ......................
    ......................
    ......................
    ......................
    ......................

    left-bearing: 2
    right-bearing: 4


0x8c:
    ......................
    ......................
    ......................
    ......................
    ......................
    ..........@@@@........
    ........@@....@@......
    .......@@......@@.....
    .......@@......@@.....
    .......@@......@@.....
    .......@@......@@.....
    ........@@....@@......
    ..........@@@@........
    ......................
    ......................
    ......................
    ......................
    ........@.@@@.@.......
    ......@@@@@@@@@@@.....
    ....@@@@@@@@@@@@@@@...
    ...@@@@@@@@@@@@@@@@@..
    ..@@@@@@......@@@@@@@.
    .@@@@@@.........@@@@@.
    .@@@@@..........@@@@@@
    .@@@@@...........@@@@@
    .................@@@@@
    .................@@@@@
    ..............@@@@@@@@
    ...........@@@@@@@@@@@
    ........@@@@@@@@@.@@@@
    ......@@@@@@@@...@@@@@
    ....@@@@@@@......@@@@@
    ..@@@@@@@........@@@@@
    .@@@@@@..........@@@@@
    @@@@@@...........@@@@@
    @@@@@............@@@@@
    @@@@@............@@@@@
    @@@@@...........@@@@@@
    @@@@@@........@@@@@@@@
    .@@@@@@.....@@@@@.@@@@
    .@@@@@@@@@@@@@@@.@@@@@
    ...@@@@@@@@@@@...@@@@@
    .....@@@@@@@.....@@@@@
    ......................
    ......................
    ......................
    ......................
    ......................
    ......................
    ......................
    ......................
    ......................

    left-bearing: 2
    right-bearing: 4


0x8d:
    .........................
    .........................
    .........................
    .........................
    .........................
    .........................
    .........................
    .........................
    .........................
    .........................
    .........................
    .........................
    .........................
    .........................
    .........................
    .........................
    .........................
    .........@.@@@@.@........
    .......@@@@@@@@@@@@......
    .....@@@@@@@@@@@@@@@@....
    ....@@@@@@@@@@@@@@@@@@...
    ...@@@@@@@......@@@@@@@..
    ..@@@@@@..........@@@@@..
    ..@@@@@............@@@@@.
    .@@@@@.............@@@@@.
    .@@@@@..............@@@@@
    @@@@@...............@@@@@
    @@@@@....................
    @@@@@....................
    @@@@@....................
    @@@@@....................
    @@@@@....................
    @@@@@....................
    @@@@@...............@@@@@
    .@@@@@..............@@@@@
    .@@@@@.............@@@@@.
    ..@@@@@............@@@@@.
    ..@@@@@@..........@@@@@..
    ...@@@@@@@......@@@@@@@..
    ....@@@@@@@@@@@@@@@@@@...
    .....@@@@@@@@@@@@@@@@....
    .......@@@@@@@@@@@@......
    .........@.@@@@.@........
    .........................
    .........................
    ...........@@@@@.........
    ...........@@@@@.........
    ...........@@@@@.........
    ..............@@.........
    ..............@@.........
    ..............@@.........
    ...........@@@@..........

    left-bearing: 2
    right-bearing: 2


0x8e:
    .........................
    .........................
    .........................
    .........................
    .........................
    .........................
    .........................
    .........................
    ...............@@@@......
    ..............@@@@.......
    .............@@@@........
    ............@@@@.........
    ...........@@@@..........
    .........................
    .........................
    .........................
    .........................
    .........@.@@@.@.........
    .......@@@@@@@@@@@.......
    .....@@@@@@@@@@@@@@@.....
    ....@@@@@@@@@@@@@@@@@....
    ...@@@@@@@.....@@@@@@@...
    ..@@@@@@.........@@@@@@..
    ..@@@@@...........@@@@@..
    .@@@@@.............@@@@@.
    .@@@@@.............@@@@@.
    @@@@@...............@@@@@
    @@@@@...............@@@@@
    @@@@@...............@@@@@
    @@@@.@@@@@@@@@@@@@@@.@@@@
    @@@@@@@@@@@@@@@@@@@@@@@@@
    @@@@@@@@@@@@@@@@@@@@@@@@@
    @@@@@....................
    @@@@@....................
    .@@@@@...................
    .@@@@@.............@@@@@.
    ..@@@@@............@@@@@.
    ..@@@@@@..........@@@@@..
    ...@@@@@@@......@@@@@@...
    ....@@@@@@@@@@@@@@@@@....
    .....@@@@@@@@@@@@@@@.....
    .......@@@@@@@@@@@.......
    .........@.@@@.@.........
    .........................
    .........................
    .........................
    .........................
    .........................
    .........................
    .........................
    .........................
    .........................

    left-bearing: 2
    right-bearing: 2


0x8f:
    .........................
    .........................
    .........................
    .........................
    .........................
    .........................
    .........................
    .........................
    .......@@@@..............
    ........@@@@.............
    .........@@@@............
    ..........@@@@...........
    ...........@@@@..........
    .........................
    .........................
    .........................
    .........................
    .........@.@@@.@.........
    .......@@@@@@@@@@@.......
    .....@@@@@@@@@@@@@@@.....
    ....@@@@@@@@@@@@@@@@@....
    ...@@@@@@@.....@@@@@@@...
    ..@@@@@@.........@@@@@@..
    ..@@@@@...........@@@@@..
    .@@@@@.............@@@@@.
    .@@@@@.............@@@@@.
    @@@@@...............@@@@@
    @@@@@...............@@@@@
    @@@@@...............@@@@@
    @@@@.@@@@@@@@@@@@@@@.@@@@
    @@@@@@@@@@@@@@@@@@@@@@@@@
    @@@@@@@@@@@@@@@@@@@@@@@@@
    @@@@@....................
    @@@@@....................
    .@@@@@...................
    .@@@@@.............@@@@@.
    ..@@@@@............@@@@@.
    ..@@@@@@..........@@@@@..
    ...@@@@@@@......@@@@@@...
    ....@@@@@@@@@@@@@@@@@....
    .....@@@@@@@@@@@@@@@.....
    .......@@@@@@@@@@@.......
    .........@.@@@.@.........
    .........................
    .........................
    .........................
    .........................
    .........................
    .........................
    .........................
    .........................
    .........................

    left-bearing: 2
    right-bearing: 2


0x90:
    .........................
    .........................
    .........................
    .........................
    .........................
    .........................
    .........................
    .........................
    ...........@@@...........
    ..........@@@@@..........
    .........@@@.@@@.........
    ........@@@...@@@........
    .......@@@.....@@@.......
    .........................
    .........................
    .........................
    .........................
    .........@.@@@.@.........
    .......@@@@@@@@@@@.......
    .....@@@@@@@@@@@@@@@.....
    ....@@@@@@@@@@@@@@@@@....
    ...@@@@@@@.....@@@@@@@...
    ..@@@@@@.........@@@@@@..
    ..@@@@@...........@@@@@..
    .@@@@@.............@@@@@.
    .@@@@@.............@@@@@.
    @@@@@...............@@@@@
    @@@@@...............@@@@@
    @@@@@...............@@@@@
    @@@@.@@@@@@@@@@@@@@@.@@@@
    @@@@@@@@@@@@@@@@@@@@@@@@@
    @@@@@@@@@@@@@@@@@@@@@@@@@
    @@@@@....................
    @@@@@....................
    .@@@@@...................
    .@@@@@.............@@@@@.
    ..@@@@@............@@@@@.
    ..@@@@@@..........@@@@@..
    ...@@@@@@@......@@@@@@...
    ....@@@@@@@@@@@@@@@@@....
    .....@@@@@@@@@@@@@@@.....
    .......@@@@@@@@@@@.......
    .........@.@@@.@.........
    .........................
    .........................
    .........................
    .........................
    .........................
    .........................
    .........................
    .........................
    .........................

    left-bearing: 2
    right-bearing: 2


0x91:
    .........................
    .........................
    .........................
    .........................
    .........................
    .........................
    .........................
    .........................
    .........................
    .........................
    .....@@@@.......@@@@.....
    .....@@@@.......@@@@.....
    .....@@@@.......@@@@.....
    .........................
    .........................
    .........................
    .........................
    .........@.@@@.@.........
    .......@@@@@@@@@@@.......
    .....@@@@@@@@@@@@@@@.....
    ....@@@@@@@@@@@@@@@@@....
    ...@@@@@@@.....@@@@@@@...
    ..@@@@@@.........@@@@@@..
    ..@@@@@...........@@@@@..
    .@@@@@.............@@@@@.
    .@@@@@.............@@@@@.
    @@@@@...............@@@@@
    @@@@@...............@@@@@
    @@@@@...............@@@@@
    @@@@.@@@@@@@@@@@@@@@.@@@@
    @@@@@@@@@@@@@@@@@@@@@@@@@
    @@@@@@@@@@@@@@@@@@@@@@@@@
    @@@@@....................
    @@@@@....................
    .@@@@@...................
    .@@@@@.............@@@@@.
    ..@@@@@............@@@@@.
    ..@@@@@@..........@@@@@..
    ...@@@@@@@......@@@@@@...
    ....@@@@@@@@@@@@@@@@@....
    .....@@@@@@@@@@@@@@@.....
    .......@@@@@@@@@@@.......
    .........@.@@@.@.........
    .........................
    .........................
    .........................
    .........................
    .........................
    .........................
    .........................
    .........................
    .........................

    left-bearing: 2
    right-bearing: 2


0x92:
    ........
    ........
    ........
    ........
    ........
    ........
    ........
    ........
    ....@@@@
    ...@@@@.
    ..@@@@..
    .@@@@...
    @@@@....
    ........
    ........
    ........
    ........
    @@@@@...
    @@@@@...
    @@@@@...
    @@@@@...
    @@@@@...
    @@@@@...
    @@@@@...
    @@@@@...
    @@@@@...
    @@@@@...
    @@@@@...
    @@@@@...
    @@@@@...
    @@@@@...
    @@@@@...
    @@@@@...
    @@@@@...
    @@@@@...
    @@@@@...
    @@@@@...
    @@@@@...
    @@@@@...
    @@@@@...
    @@@@@...
    @@@@@...
    @@@@@...
    ........
    ........
    ........
    ........
    ........
    ........
    ........
    ........
    ........

    left-bearing: 5
    right-bearing: 2


0x93:
    ........
    ........
    ........
    ........
    ........
    ........
    ........
    ........
    @@@@....
    .@@@@...
    ..@@@@..
    ...@@@@.
    ....@@@@
    ........
    ........
    ........
    ........
    ...@@@@@
    ...@@@@@
    ...@@@@@
    ...@@@@@
    ...@@@@@
    ...@@@@@
    ...@@@@@
    ...@@@@@
    ...@@@@@
    ...@@@@@
    ...@@@@@
    ...@@@@@
    ...@@@@@
    ...@@@@@
    ...@@@@@
    ...@@@@@
    ...@@@@@
    ...@@@@@
    ...@@@@@
    ...@@@@@
    ...@@@@@
    ...@@@@@
    ...@@@@@
    ...@@@@@
    ...@@@@@
    ...@@@@@
    ........
    ........
    ........
    ........
    ........
    ........
    ........
    ........
    ........

    left-bearing: 2
    right-bearing: 5


0x94:
    ...........
    ...........
    ...........
    ...........
    ...........
    ...........
    ...........
    ...........
    ....@@@....
    ...@@@@@...
    ..@@@.@@@..
    .@@@...@@@.
    @@@.....@@@
    ...........
    ...........
    ...........
    ...........
    ...@@@@@...
    ...@@@@@...
    ...@@@@@...
    ...@@@@@...
    ...@@@@@...
    ...@@@@@...
    ...@@@@@...
    ...@@@@@...
    ...@@@@@...
    ...@@@@@...
    ...@@@@@...
    ...@@@@@...
    ...@@@@@...
    ...@@@@@...
    ...@@@@@...
    ...@@@@@...
    ...@@@@@...
    ...@@@@@...
    ...@@@@@...
    ...@@@@@...
    ...@@@@@...
    ...@@@@@...
    ...@@@@@...
    ...@@@@@...
    ...@@@@@...
    ...@@@@@...
    ...........
    ...........
    ...........
    ...........
    ...........
    ...........
    ...........
    ...........
    ...........

    left-bearing: 2
    right-bearing: 2


0x95:
    ...........
    ...........
    ...........
    ...........
    ...........
    ...........
    ...........
    ...........
    ...........
    ...........
    @@@@...@@@@
    @@@@...@@@@
    @@@@...@@@@
    ...........
    ...........
    ...........
    ...........
    ...@@@@@...
    ...@@@@@...
    ...@@@@@...
    ...@@@@@...
    ...@@@@@...
    ...@@@@@...
    ...@@@@@...
    ...@@@@@...
    ...@@@@@...
    ...@@@@@...
    ...@@@@@...
    ...@@@@@...
    ...@@@@@...
    ...@@@@@...
    ...@@@@@...
    ...@@@@@...
    ...@@@@@...
    ...@@@@@...
    ...@@@@@...
    ...@@@@@...
    ...@@@@@...
    ...@@@@@...
    ...@@@@@...
    ...@@@@@...
    ...@@@@@...
    ...@@@@@...
    ...........
    ...........
    ...........
    ...........
    ...........
    ...........
    ...........
    ...........
    ...........

    left-bearing: 2
    right-bearing: 2


0x96:
    ........................
    ........................
    ........................
    ........................
    ........................
    ........................
    ........................
    ........................
    .......@@@@........@@...
    .....@@@@@@@@.....@@@...
    ....@@@..@@@@@@..@@@....
    ...@@@.....@@@@@@@@.....
    ...@@........@@@@.......
    ........................
    ........................
    ........................
    ........................
    @@@@@.....@@@@@@@.......
    @@@@@...@@@@@@@@@@@.....
    @@@@@.@@@@@@@@@@@@@@@...
    @@@@.@@@@@@@@@@@@@@@@@..
    @@@@@@@@@......@@@@@@@@.
    @@@@@@@..........@@@@@@.
    @@@@@@............@@@@@@
    @@@@@.............@@@@@@
    @@@@@..............@@@@@
    @@@@@..............@@@@@
    @@@@@..............@@@@@
    @@@@@..............@@@@@
    @@@@@..............@@@@@
    @@@@@..............@@@@@
    @@@@@..............@@@@@
    @@@@@..............@@@@@
    @@@@@..............@@@@@
    @@@@@..............@@@@@
    @@@@@..............@@@@@
    @@@@@..............@@@@@
    @@@@@..............@@@@@
    @@@@@..............@@@@@
    @@@@@..............@@@@@
    @@@@@..............@@@@@
    @@@@@..............@@@@@
    @@@@@..............@@@@@
    ........................
    ........................
    ........................
    ........................
    ........................
    ........................
    ........................
    ........................
    ........................

    left-bearing: 4
    right-bearing: 4


0x97:
    ..........................
    ..........................
    ..........................
    ..........................
    ..........................
    ..........................
    ..........................
    ..........................
    ...............@@@@.......
    ..............@@@@........
    .............@@@@.........
    ............@@@@..........
    ...........@@@@...........
    ..........................
    ..........................
    ..........................
    ..........................
    .........@.@@@@.@.........
    .......@@@@@@@@@@@@.......
    .....@@@@@@@@@@@@@@@@.....
    ....@@@@@@@@@@@@@@@@@@....
    ...@@@@@@@......@@@@@@@...
    ..@@@@@@..........@@@@@@..
    ..@@@@@............@@@@@..
    .@@@@@..............@@@@@.
    .@@@@@..............@@@@@.
    @@@@@................@@@@@
    @@@@@................@@@@@
    @@@@@................@@@@@
    @@@@@................@@@@@
    @@@@@................@@@@@
    @@@@@................@@@@@
    @@@@@................@@@@@
    @@@@@................@@@@@
    .@@@@@..............@@@@@.
    .@@@@@..............@@@@@.
    ..@@@@@............@@@@@..
    ..@@@@@@..........@@@@@@..
    ...@@@@@@@......@@@@@@@...
    ....@@@@@@@@@@@@@@@@@@....
    .....@@@@@@@@@@@@@@@@.....
    .......@@@@@@@@@@@@.......
    .........@.@@@@.@.........
    ..........................
    ..........................
    ..........................
    ..........................
    ..........................
    ..........................
    ..........................
    ..........................
    ..........................

    left-bearing: 2
    right-bearing: 2


0x98:
    ..........................
    ..........................
    ..........................
    ..........................
    ..........................
    ..........................
    ..........................
    ..........................
    .......@@@@...............
    ........@@@@..............
    .........@@@@.............
    ..........@@@@............
    ...........@@@@...........
    ..........................
    ..........................
    ..........................
    ..........................
    .........@.@@@@.@.........
    .......@@@@@@@@@@@@.......
    .....@@@@@@@@@@@@@@@@.....
    ....@@@@@@@@@@@@@@@@@@....
    ...@@@@@@@......@@@@@@@...
    ..@@@@@@..........@@@@@@..
    ..@@@@@............@@@@@..
    .@@@@@..............@@@@@.
    .@@@@@..............@@@@@.
    @@@@@................@@@@@
    @@@@@................@@@@@
    @@@@@................@@@@@
    @@@@@................@@@@@
    @@@@@................@@@@@
    @@@@@................@@@@@
    @@@@@................@@@@@
    @@@@@................@@@@@
    .@@@@@..............@@@@@.
    .@@@@@..............@@@@@.
    ..@@@@@............@@@@@..
    ..@@@@@@..........@@@@@@..
    ...@@@@@@@......@@@@@@@...
    ....@@@@@@@@@@@@@@@@@@....
    .....@@@@@@@@@@@@@@@@.....
    .......@@@@@@@@@@@@.......
    .........@.@@@@.@.........
    ..........................
    ..........................
    ..........................
    ..........................
    ..........................
    ..........................
    ..........................
    ..........................
    ..........................

    left-bearing: 2
    right-bearing: 2


